<?xml version="1.0" encoding="UTF-8"?>
<!DOCTYPE svg PUBLIC "-//W3C//DTD SVG 1.1//EN" "http://www.w3.org/Graphics/SVG/1.1/DTD/svg11.dtd">
<svg xmlns="http://www.w3.org/2000/svg" version="1.1" width="210px" height="630px" style="shape-rendering:geometricPrecision; text-rendering:geometricPrecision; image-rendering:optimizeQuality; fill-rule:evenodd; clip-rule:evenodd" xmlns:xlink="http://www.w3.org/1999/xlink">
<g><path style="opacity:0.9" fill="#fefffe" d="M 39.5,14.5 C 41.2363,17.1975 43.2363,19.6975 45.5,22C 44.6198,23.3561 44.2865,24.8561 44.5,26.5C 43.9569,26.56 43.6236,26.8933 43.5,27.5C 45.4233,28.3078 47.4233,28.8078 49.5,29C 49.3297,35.4396 49.3297,41.6063 49.5,47.5C 48.2264,48.1894 48.2264,49.0228 49.5,50C 48.3333,50.5 47.5,51.3333 47,52.5C 46,51.8333 45,51.1667 44,50.5C 37.8766,51.4249 31.3766,51.7582 24.5,51.5C 24.1667,50.1667 23.8333,50.1667 23.5,51.5C 20.1373,51.3328 19.1373,49.8328 20.5,47C 19.7282,45.779 18.7282,44.779 17.5,44C 18.5,43.6667 19.5,43.3333 20.5,43C 18.9865,40.0844 19.3199,37.4177 21.5,35C 18.522,31.1189 19.522,28.9523 24.5,28.5C 23.666,23.3467 24.9993,18.8467 28.5,15C 31.0529,14.2389 33.5529,13.4056 36,12.5C 36.7096,13.9733 37.8762,14.6399 39.5,14.5 Z M 32.5,18.5 C 33.8736,18.7921 35.2069,19.1254 36.5,19.5C 37.4916,19.3284 38.1583,19.6618 38.5,20.5C 39.224,22.2184 39.8906,24.0517 40.5,26C 39.9558,26.7172 39.2891,27.2172 38.5,27.5C 38.2172,28.2891 37.7172,28.9558 37,29.5C 34.6842,28.6956 32.1842,28.3623 29.5,28.5C 27.7555,24.2451 28.7555,20.9117 32.5,18.5 Z"/></g>
<g><path style="opacity:0.051" fill="#fefffe" d="M 39.5,13.5 C 40.8333,14.1667 40.8333,14.1667 39.5,13.5 Z"/></g>
<g><path style="opacity:0.694" fill="#fefffe" d="M 22.5,26.5 C 23.8333,27.1667 23.8333,27.1667 22.5,26.5 Z"/></g>
<g><path style="opacity:0.4" fill="#fefffe" d="M 44.5,26.5 C 45.8333,27.1667 45.8333,27.1667 44.5,26.5 Z"/></g>
<g><path style="opacity:1" fill="#fefffe" d="M 19.5,27.5 C 20.8333,28.1667 20.8333,28.1667 19.5,27.5 Z"/></g>
<g><path style="opacity:0.349" fill="#fefffe" d="M 49.5,47.5 C 50.8333,48.1667 50.8333,48.1667 49.5,47.5 Z"/></g>
<g><path style="opacity:0.133" fill="#fefffe" d="M 23.5,51.5 C 23.8333,51.5 24.1667,51.5 24.5,51.5C 24.3147,52.1701 23.9813,52.1701 23.5,51.5 Z"/></g>
<g><path style="opacity:0.009" fill="#5b5b5b" d="M 79.5,84.5 C 79.1667,84.5 78.8333,84.5 78.5,84.5C 76.9328,81.0333 75.0995,77.6999 73,74.5C 71.0797,77.3388 69.4131,80.3388 68,83.5C 69,79.5 70,75.5 71,71.5C 55.6463,55.198 37.813,51.0313 17.5,59C 12.6027,61.9393 7.93603,65.106 3.5,68.5C 10.1084,60.3535 18.7751,55.5202 29.5,54C 47.1771,52.2197 61.6771,58.053 73,71.5C 77.6742,65.5822 83.5076,61.2489 90.5,58.5C 91.6956,58.8457 91.6956,59.3457 90.5,60C 84.3529,62.4924 79.1863,66.3257 75,71.5C 76.4283,75.7262 77.9283,80.0595 79.5,84.5 Z"/></g>
<g><path style="opacity:0.005" fill="#5a5a5a" d="M 103.5,55.5 C 110.281,55.6337 116.614,57.3004 122.5,60.5C 122.333,60.8333 122.167,61.1667 122,61.5C 119.07,59.7449 115.903,58.5783 112.5,58C 107.833,57.6667 103.167,57.3333 98.5,57C 100.382,56.8019 102.048,56.3019 103.5,55.5 Z"/></g>
<g><path style="opacity:0.004" fill="#5a5a5a" d="M 92.5,57.5 C 96.2434,57.4592 96.4101,58.1259 93,59.5C 92.5357,58.9056 92.369,58.2389 92.5,57.5 Z"/></g>
<g><path style="opacity:0.006" fill="#5b5b5b" d="M 123.5,60.5 C 133.748,66.083 140.748,74.4164 144.5,85.5C 153.183,72.2031 165.516,66.7031 181.5,69C 201.206,74.7405 209.706,87.9072 207,108.5C 201.832,127.515 189.332,136.348 169.5,135C 156.635,132.581 147.635,125.414 142.5,113.5C 138.192,121.641 132.026,127.974 124,132.5C 129.841,127.304 135.174,121.304 140,114.5C 141.793,110.41 141.96,106.244 140.5,102C 141.054,97.3985 142.054,92.8985 143.5,88.5C 142.049,82.6338 139.549,77.3005 136,72.5C 131.891,68.2197 127.724,64.2197 123.5,60.5 Z M 159.5,129.5 C 161.144,129.714 162.644,129.38 164,128.5C 166.135,130.278 168.635,130.945 171.5,130.5C 171.666,124.491 171.499,118.491 171,112.5C 169.32,111.397 167.82,111.73 166.5,113.5C 165.03,116.308 164.197,119.308 164,122.5C 163.713,120.109 163.213,117.776 162.5,115.5C 160.994,114.253 159.494,114.253 158,115.5C 156.528,120.08 156.695,124.414 158.5,128.5C 146.105,122.044 141.605,112.044 145,98.5C 143.908,101.044 143.241,103.711 143,106.5C 142.19,102.642 142.357,98.9758 143.5,95.5C 144.363,87.3369 149.363,80.1702 158.5,74C 177.091,66.1886 191.924,70.6886 203,87.5C 210.258,109.485 203.091,124.651 181.5,133C 176.833,133.667 172.167,133.667 167.5,133C 164.401,132.613 161.734,131.446 159.5,129.5 Z"/></g>
<g><path style="opacity:0.008" fill="#5b5b5b" d="M 3.5,68.5 C 2.55139,70.7772 1.21806,72.7772 -0.5,74.5C -0.5,73.5 -0.5,72.5 -0.5,71.5C 0.833333,70.5 2.16667,69.5 3.5,68.5 Z"/></g>
<g><path style="opacity:0.787" fill="#fcfcfc" d="M 188.5,86.5 C 194.613,81.5008 197.613,83.1675 197.5,91.5C 198.822,91.33 199.989,91.6634 201,92.5C 201.866,97.7091 201.199,102.709 199,107.5C 197.649,109.01 195.982,110.01 194,110.5C 192.268,110.266 191.434,109.266 191.5,107.5C 193.062,101.909 192.396,101.409 189.5,106C 188.146,107.294 186.812,107.46 185.5,106.5C 184.772,103.198 184.605,99.8648 185,96.5C 183.526,101.147 180.859,104.814 177,107.5C 174.514,107.261 172.014,106.927 169.5,106.5C 167.308,103.226 165.308,99.8924 163.5,96.5C 164.553,99.8515 164.553,103.185 163.5,106.5C 162.914,106.709 162.414,107.043 162,107.5C 160.008,106.335 158.175,105.002 156.5,103.5C 158.086,111.04 155.753,112.374 149.5,107.5C 147.256,102.636 146.589,97.6364 147.5,92.5C 148.325,91.6143 149.325,91.281 150.5,91.5C 150.183,85.4733 152.85,83.1399 158.5,84.5C 158.942,85.7387 159.609,86.7387 160.5,87.5C 159.117,83.4281 159.284,79.4281 161,75.5C 163.854,72.9836 166.521,73.3169 169,76.5C 171.414,83.9764 173.081,91.6431 174,99.5C 175.251,93.1813 176.584,86.848 178,80.5C 178.823,74.9347 181.823,72.9347 187,74.5C 188.354,78.3628 188.854,82.3628 188.5,86.5 Z"/></g>
<g><path style="opacity:0.932" fill="#f4f4f4" d="M 26.5,74.5 C 27.8333,74.5 29.1667,74.5 30.5,74.5C 30.299,78.7933 32.299,80.7933 36.5,80.5C 40.701,80.7933 42.701,78.7933 42.5,74.5C 43.8333,74.5 45.1667,74.5 46.5,74.5C 46.78,77.2724 46.1134,79.7724 44.5,82C 47.3503,83.1711 50.1836,84.3377 53,85.5C 54.6625,83.8421 55.4959,81.8421 55.5,79.5C 56.8333,79.5 58.1667,79.5 59.5,79.5C 59.722,82.3903 59.0553,85.057 57.5,87.5C 59.7132,90.5435 61.7132,93.7101 63.5,97C 60.0067,100.988 56.0067,104.488 51.5,107.5C 53.473,110.64 55.6397,113.64 58,116.5C 58.7975,118.259 58.6309,119.926 57.5,121.5C 54.9783,123.856 52.3116,126.023 49.5,128C 40.8333,130 32.1667,130 23.5,128C 20.6884,126.023 18.0217,123.856 15.5,121.5C 14.3691,119.926 14.2025,118.259 15,116.5C 17.3603,113.64 19.527,110.64 21.5,107.5C 16.9933,104.488 12.9933,100.988 9.5,97C 11.2868,93.7101 13.2868,90.5435 15.5,87.5C 13.9447,85.057 13.278,82.3903 13.5,79.5C 14.8333,79.5 16.1667,79.5 17.5,79.5C 17.5041,81.8421 18.3375,83.8421 20,85.5C 22.8164,84.3377 25.6497,83.1711 28.5,82C 26.8866,79.7724 26.22,77.2724 26.5,74.5 Z M 34.5,86.5 C 42.4908,86.6537 45.9908,90.6537 45,98.5C 42.5493,104.089 38.3826,105.922 32.5,104C 25.4025,97.11 26.0692,91.2767 34.5,86.5 Z M 22.5,88.5 C 23.3764,88.3691 24.0431,88.7025 24.5,89.5C 23.3607,94.4808 23.3607,99.1474 24.5,103.5C 21.0004,101.492 18.0004,98.9918 15.5,96C 17.3483,92.9871 19.6817,90.4871 22.5,88.5 Z M 48.5,88.5 C 52.544,89.7077 55.544,92.2077 57.5,96C 54.9996,98.9918 51.9996,101.492 48.5,103.5C 49.7056,98.8157 49.7056,93.8157 48.5,88.5 Z M 25.5,109.5 C 32.8386,110.663 40.1719,110.83 47.5,110C 49.3771,112.921 51.3771,115.754 53.5,118.5C 49.2174,123.851 43.5508,126.184 36.5,125.5C 29.4492,126.184 23.7826,123.851 19.5,118.5C 21.7583,115.643 23.7583,112.643 25.5,109.5 Z"/></g>
<g><path style="opacity:0.004" fill="#5a5b5a" d="M 66.5,84.5 C 67.8333,85.1667 67.8333,85.1667 66.5,84.5 Z"/></g>
<g><path style="opacity:0.909" fill="#f8f8f8" d="M 78.5,84.5 C 78.8333,84.5 79.1667,84.5 79.5,84.5C 80.7942,85.2899 81.9609,86.2899 83,87.5C 86.6158,86.7623 90.2825,86.0956 94,85.5C 96.5,86.3333 97,87.8333 95.5,90C 96.6642,91.9939 97.3308,94.1605 97.5,96.5C 96.2902,101.225 94.9568,105.892 93.5,110.5C 92.1667,110.5 90.8333,110.5 89.5,110.5C 89.7515,116.714 87.0848,120.714 81.5,122.5C 81.8128,118.958 81.4794,115.625 80.5,112.5C 80.7678,110.901 80.4345,109.568 79.5,108.5C 79.189,107.522 78.5223,106.855 77.5,106.5C 75.1304,108.098 73.4638,107.598 72.5,105C 73.6039,103.18 75.1039,101.68 77,100.5C 77.3333,97.5 77.6667,94.5 78,91.5C 78.5,91 79,90.5 79.5,90C 77.4468,88.3221 77.1134,86.4888 78.5,84.5 Z M 91.5,92.5 C 93.7213,94.3299 93.8879,96.3299 92,98.5C 88.8981,96.6627 88.7314,94.6627 91.5,92.5 Z M 85.5,98.5 C 88.0848,99.4654 88.5848,100.799 87,102.5C 83.3849,101.81 82.8849,100.477 85.5,98.5 Z"/></g>
<g><path style="opacity:0.904" fill="#f9f9f9" d="M 129.5,84.5 C 130.5,84.5 131.5,84.5 132.5,84.5C 132.822,86.7224 132.155,88.5557 130.5,90C 131,90.5 131.5,91 132,91.5C 132.333,94.5 132.667,97.5 133,100.5C 134.896,101.68 136.396,103.18 137.5,105C 136.536,107.598 134.87,108.098 132.5,106.5C 131.522,106.977 130.689,107.643 130,108.5C 128.775,113.085 128.275,117.752 128.5,122.5C 127.167,122.5 125.833,122.5 124.5,122.5C 123.617,120.09 122.45,117.757 121,115.5C 120.506,113.866 120.34,112.199 120.5,110.5C 119.178,110.67 118.011,110.337 117,109.5C 115.321,106.302 113.987,102.968 113,99.5C 113.12,95.0287 113.453,90.6954 114,86.5C 118.717,86.429 123.55,86.2624 128.5,86C 129.056,85.6174 129.389,85.1174 129.5,84.5 Z M 117.5,92.5 C 121.184,94.2033 121.351,96.2033 118,98.5C 116.311,96.6804 116.145,94.6804 117.5,92.5 Z M 123.5,98.5 C 127.486,100.06 127.319,101.393 123,102.5C 122.5,102.167 122,101.833 121.5,101.5C 122.193,100.482 122.859,99.4822 123.5,98.5 Z"/></g>
<g><path style="opacity:0.004" fill="#585958" d="M 65.5,89.5 C 66.8333,90.1667 66.8333,90.1667 65.5,89.5 Z"/></g>
<g><path style="opacity:0.934" fill="#f5f5f5" d="M 34.5,90.5 C 41.2383,91.0611 42.9049,94.2278 39.5,100C 34.9322,101.65 32.2656,100.15 31.5,95.5C 32.0924,93.5775 33.0924,91.9108 34.5,90.5 Z"/></g>
<g><path style="opacity:0.008" fill="#5a5b5a" d="M 143.5,95.5 C 145.337,95.6395 145.67,96.3061 144.5,97.5C 143.702,97.0431 143.369,96.3764 143.5,95.5 Z"/></g>
<g><path style="opacity:0.004" fill="#595a59" d="M 65.5,102.5 C 66.8333,103.167 66.8333,103.167 65.5,102.5 Z"/></g>
<g><path style="opacity:0.004" fill="#5a5a5a" d="M 66.5,106.5 C 67.525,106.897 67.6917,107.563 67,108.5C 66.5357,107.906 66.369,107.239 66.5,106.5 Z"/></g>
<g><path style="opacity:0.009" fill="#5b5b5b" d="M 79.5,108.5 C 80.4345,109.568 80.7678,110.901 80.5,112.5C 79.7333,116.037 78.3999,119.371 76.5,122.5C 86.0767,133.305 98.0767,137.471 112.5,135C 115.903,134.422 119.07,133.255 122,131.5C 122.688,132.332 122.521,132.998 121.5,133.5C 104.191,140.063 88.6914,137.063 75,124.5C 60.557,143.978 41.7237,149.812 18.5,142C 12.28,139.579 7.28003,135.746 3.5,130.5C 21.359,145.703 40.359,147.869 60.5,137C 65.8922,133.276 70.2256,128.609 73.5,123C 73.0109,121.862 72.6775,120.695 72.5,119.5C 73.4584,119.953 74.2917,120.619 75,121.5C 77.6021,117.526 79.1021,113.193 79.5,108.5 Z"/></g>
<g><path style="opacity:0.005" fill="#5b5b5b" d="M 69.5,114.5 C 67.9014,113.201 67.4014,111.535 68,109.5C 69.0086,111.025 69.5086,112.692 69.5,114.5 Z"/></g>
<g><path style="opacity:0.641" fill="#fcfcfc" d="M 159.5,129.5 C 159.5,128.833 159.167,128.5 158.5,128.5C 156.695,124.414 156.528,120.08 158,115.5C 159.494,114.253 160.994,114.253 162.5,115.5C 163.213,117.776 163.713,120.109 164,122.5C 164.197,119.308 165.03,116.308 166.5,113.5C 167.82,111.73 169.32,111.397 171,112.5C 171.499,118.491 171.666,124.491 171.5,130.5C 168.635,130.945 166.135,130.278 164,128.5C 162.644,129.38 161.144,129.714 159.5,129.5 Z"/></g>
<g><path style="opacity:0.641" fill="#fbfbfb" d="M 178.5,111.5 C 180.017,111.511 181.184,112.177 182,113.5C 183.399,116.363 184.399,119.363 185,122.5C 185.333,120.167 185.667,117.833 186,115.5C 187.356,114.62 188.856,114.286 190.5,114.5C 190.572,117.193 190.905,119.86 191.5,122.5C 191.486,127.365 189.32,129.365 185,128.5C 182.847,130.444 180.347,130.944 177.5,130C 177.671,124.899 177.338,119.899 176.5,115C 177.305,113.887 177.972,112.721 178.5,111.5 Z"/></g>
<g><path style="opacity:0.004" fill="#5a5a5a" d="M 69.5,114.5 C 71.2503,115.659 72.2503,117.326 72.5,119.5C 70.7497,118.341 69.7497,116.674 69.5,114.5 Z"/></g>
<g><path style="opacity:0.008" fill="#5b5b5b" d="M -0.5,124.5 C 1.21806,126.223 2.55139,128.223 3.5,130.5C 2.16667,129.5 0.833333,128.5 -0.5,127.5C -0.5,126.5 -0.5,125.5 -0.5,124.5 Z"/></g>
<g><path style="opacity:0.478" fill="#000000" d="M 191.5,588.5 C 193.297,588.935 195.297,588.935 197.5,588.5C 197.5,590.5 197.5,592.5 197.5,594.5C 191.822,595.416 189.822,593.416 191.5,588.5 Z"/></g>
</svg>
