<?xml version="1.0" encoding="UTF-8"?>
<!DOCTYPE svg PUBLIC "-//W3C//DTD SVG 1.1//EN" "http://www.w3.org/Graphics/SVG/1.1/DTD/svg11.dtd">
<svg xmlns="http://www.w3.org/2000/svg" version="1.1" width="370px" height="80px" style="shape-rendering:geometricPrecision; text-rendering:geometricPrecision; image-rendering:optimizeQuality; fill-rule:evenodd; clip-rule:evenodd" xmlns:xlink="http://www.w3.org/1999/xlink">
<g><path style="opacity:0.169" fill="#fefffe" d="M 334.5,-0.5 C 334.833,-0.5 335.167,-0.5 335.5,-0.5C 335.315,0.170143 334.981,0.170143 334.5,-0.5 Z"/></g>
<g><path style="opacity:0.012" fill="#fefffe" d="M 337.5,-0.5 C 337.833,-0.5 338.167,-0.5 338.5,-0.5C 338.315,0.170143 337.981,0.170143 337.5,-0.5 Z"/></g>
<g><path style="opacity:0.996" fill="#fefffe" d="M 343.5,-0.5 C 343.833,-0.5 344.167,-0.5 344.5,-0.5C 344.315,0.170143 343.981,0.170143 343.5,-0.5 Z"/></g>
<g><path style="opacity:0.892" fill="#fefffe" d="M 351.5,-0.5 C 352.167,-0.5 352.833,-0.5 353.5,-0.5C 355.833,0.833333 358.167,0.833333 360.5,-0.5C 361.167,-0.5 361.833,-0.5 362.5,-0.5C 363.833,0.833333 365.167,0.833333 366.5,-0.5C 366.833,-0.5 367.167,-0.5 367.5,-0.5C 368.024,1.3057 368.691,2.97237 369.5,4.5C 369.5,5.16667 369.5,5.83333 369.5,6.5C 367.5,6.5 366.5,7.5 366.5,9.5C 365.662,9.84171 365.328,10.5084 365.5,11.5C 364.659,12.9264 363.659,14.2597 362.5,15.5C 361.814,16.8484 360.814,18.015 359.5,19C 360.171,19.9862 360.171,21.1529 359.5,22.5C 358.577,21.6971 357.577,21.5304 356.5,22C 355.17,23.633 354.504,25.133 354.5,26.5C 353.784,25.689 352.95,25.0223 352,24.5C 349.503,25.2489 347.003,25.9155 344.5,26.5C 343.082,24.6921 341.082,24.0254 338.5,24.5C 335.576,23.6341 332.576,22.6341 329.5,21.5C 328.167,20.5 328.167,19.5 329.5,18.5C 328.975,17.8076 328.308,17.3076 327.5,17C 328.252,16.3292 328.586,15.4959 328.5,14.5C 329.96,12.5372 331.627,10.7038 333.5,9C 333.167,8.66667 332.833,8.33333 332.5,8C 335.232,7.60194 337.065,6.10194 338,3.5C 340.19,4.58377 341.856,3.9171 343,1.5C 344.145,2.6843 345.312,2.6843 346.5,1.5C 347.5,2.83333 348.5,2.83333 349.5,1.5C 350.833,1.5 351.5,0.833333 351.5,-0.5 Z M 344.5,13.5 C 347.167,13.1667 347.167,12.8333 344.5,12.5C 344.5,12.1667 344.5,11.8333 344.5,11.5C 342.354,11.3036 342.188,10.3036 344,8.5C 345.324,9.88017 346.657,10.2135 348,9.5C 350.096,10.7155 349.929,11.5488 347.5,12C 348.126,12.7504 348.626,13.5838 349,14.5C 349.718,13.5494 350.551,13.3828 351.5,14C 351.324,15.6916 350.824,17.1916 350,18.5C 349.641,15.4557 348.974,15.1224 348,17.5C 347.641,14.4557 346.974,14.1224 346,16.5C 343.842,15.9498 343.342,14.9498 344.5,13.5 Z"/></g>
<g><path style="opacity:0.706" fill="#fefffe" d="M 346.5,0.5 C 347.833,1.16667 347.833,1.16667 346.5,0.5 Z"/></g>
<g><path style="opacity:1" fill="#fefffe" d="M 349.5,1.5 C 348.833,0.166667 348.833,0.166667 349.5,1.5 Z"/></g>
<g><path style="opacity:0.878" fill="#fefffe" d="M 203.5,2.5 C 204.833,3.16667 204.833,3.16667 203.5,2.5 Z"/></g>
<g><path style="opacity:0.894" fill="#fefffe" d="M 213.5,2.5 C 214.833,3.16667 214.833,3.16667 213.5,2.5 Z"/></g>
<g><path style="opacity:0.035" fill="#fefffe" d="M 331.5,3.5 C 332.833,4.16667 332.833,4.16667 331.5,3.5 Z"/></g>
<g><path style="opacity:1" fill="#fefffe" d="M 334.5,3.5 C 335.525,3.89657 335.692,4.56323 335,5.5C 334.536,4.90558 334.369,4.23891 334.5,3.5 Z"/></g>
<g><path style="opacity:0.984" fill="#fefffe" d="M 201.5,4.5 C 202.833,5.16667 202.833,5.16667 201.5,4.5 Z"/></g>
<g><path style="opacity:1" fill="#fefffe" d="M 207.5,5.5 C 206.833,4.16667 206.833,4.16667 207.5,5.5 Z"/></g>
<g><path style="opacity:0.877" fill="#fefffe" d="M 219.5,7.5 C 219.054,10.0101 219.72,12.0101 221.5,13.5C 222.251,14.5735 223.251,14.7401 224.5,14C 224.167,13.6667 223.833,13.3333 223.5,13C 225.677,11.2273 227.51,9.06061 229,6.5C 229.374,7.41623 229.874,8.24956 230.5,9C 231.825,8.85161 232.992,9.01827 234,9.5C 235.197,13.5295 235.364,17.5295 234.5,21.5C 235.025,22.1924 235.692,22.6924 236.5,23C 235.386,24.4493 234.386,25.7827 233.5,27C 233.871,28.6033 234.205,30.1033 234.5,31.5C 234.5,31.8333 234.5,32.1667 234.5,32.5C 233.226,33.1894 233.226,34.0228 234.5,35C 238.346,35.4121 241.846,35.9121 245,36.5C 245.333,35.8333 245.667,35.1667 246,34.5C 246.792,36.6437 248.292,37.977 250.5,38.5C 250.842,39.3382 251.508,39.6716 252.5,39.5C 251.185,40.8946 251.519,41.8946 253.5,42.5C 253.34,44.1992 253.506,45.8659 254,47.5C 254.5,47 255,46.5 255.5,46C 254.663,44.9887 254.33,43.8221 254.5,42.5C 255.5,42.5 256.5,42.5 257.5,42.5C 257.5,41.5 257.5,40.5 257.5,39.5C 258.833,38.5 258.833,37.5 257.5,36.5C 257.423,35.2502 256.756,34.4169 255.5,34C 258.633,35.2602 261.3,34.5935 263.5,32C 263.167,31.6667 262.833,31.3333 262.5,31C 264.058,30.79 265.391,30.29 266.5,29.5C 268.196,31.129 269.196,30.7957 269.5,28.5C 270.5,29.1667 271.5,29.8333 272.5,30.5C 272.646,33.5498 273.98,34.5498 276.5,33.5C 276.5,34.1667 276.833,34.5 277.5,34.5C 279.757,35.4013 281.257,37.068 282,39.5C 282.383,38.944 282.883,38.6107 283.5,38.5C 284.674,40.2243 285.674,41.891 286.5,43.5C 287.476,44.8149 288.476,46.1482 289.5,47.5C 290.086,47.2907 290.586,46.9574 291,46.5C 291.127,47.7766 290.627,48.9433 289.5,50C 289.836,51.0299 290.503,51.5299 291.5,51.5C 290.859,52.4822 290.193,53.4822 289.5,54.5C 289.624,55.1067 289.957,55.44 290.5,55.5C 291.808,54.7677 293.142,53.9344 294.5,53C 293.944,52.6174 293.611,52.1174 293.5,51.5C 295.688,50.3482 295.688,48.8482 293.5,47C 294.784,46.3162 295.951,46.4829 297,47.5C 299.04,45.7194 299.54,43.7194 298.5,41.5C 299.097,41.2648 299.43,40.7648 299.5,40C 298.491,39.6454 297.824,38.8121 297.5,37.5C 298.173,34.8362 298.173,30.6696 297.5,25C 298.893,23.8289 299.727,22.3289 300,20.5C 300.903,21.7014 302.069,22.5348 303.5,23C 303.167,23.3333 302.833,23.6667 302.5,24C 303.636,25.1451 304.636,26.3117 305.5,27.5C 305.328,28.4916 305.662,29.1583 306.5,29.5C 307.779,30.7152 308.779,30.3818 309.5,28.5C 310.833,27.8333 311.833,26.8333 312.5,25.5C 314.384,24.6613 315.717,23.328 316.5,21.5C 316.369,22.2389 316.536,22.9056 317,23.5C 318.489,21.6682 320.322,20.8348 322.5,21C 321.248,22.8278 321.248,24.6612 322.5,26.5C 320.073,27.2789 320.073,28.4455 322.5,30C 320.699,30.3173 320.366,30.984 321.5,32C 320.376,32.2492 319.376,32.7492 318.5,33.5C 320.202,36.6901 319.536,37.8568 316.5,37C 316.833,37.3333 317.167,37.6667 317.5,38C 316.244,38.4169 315.577,39.2502 315.5,40.5C 313.926,42.1016 313.259,44.1016 313.5,46.5C 314.5,46.5 315.5,46.5 316.5,46.5C 315.737,47.2679 314.737,47.7679 313.5,48C 314.752,50.6327 316.086,53.1327 317.5,55.5C 317.756,57.7761 319.09,58.9428 321.5,59C 320.833,59.3333 320.167,59.6667 319.5,60C 319.854,61.6255 319.854,63.4588 319.5,65.5C 320.552,65.3505 321.552,65.5172 322.5,66C 319.743,66.9383 317.41,68.4383 315.5,70.5C 315.631,69.6236 315.298,68.9569 314.5,68.5C 313.537,68.9698 313.537,69.6365 314.5,70.5C 313.041,70.5674 311.708,70.2341 310.5,69.5C 309.639,67.6137 308.639,65.7804 307.5,64C 305.86,63.6522 304.527,64.1522 303.5,65.5C 301.014,66.4616 301.014,67.2949 303.5,68C 302.377,69.0437 301.044,69.7104 299.5,70C 300.056,70.3826 300.389,70.8826 300.5,71.5C 298.92,73.9274 297.086,76.2608 295,78.5C 294.667,77.8333 294.333,77.1667 294,76.5C 292.084,76.3555 290.251,76.8555 288.5,78C 289.214,76.6569 288.88,75.3236 287.5,74C 288.451,73.2825 288.617,72.4491 288,71.5C 286.295,72.7633 284.628,73.0966 283,72.5C 282.283,73.0442 281.783,73.7109 281.5,74.5C 280.833,74.5 280.5,74.8333 280.5,75.5C 278.323,76.2794 276.656,77.6127 275.5,79.5C 269.5,79.5 263.5,79.5 257.5,79.5C 255.856,77.4714 254.189,75.3048 252.5,73C 252.708,70.8963 252.708,68.7296 252.5,66.5C 251.914,66.2907 251.414,65.9574 251,65.5C 250.075,67.6896 248.908,69.6896 247.5,71.5C 245.657,70.9572 243.99,71.6239 242.5,73.5C 241.614,74.325 241.281,75.325 241.5,76.5C 240.5,76.5 239.5,76.5 238.5,76.5C 238.44,75.9569 238.107,75.6236 237.5,75.5C 236.646,76.5217 235.646,77.3551 234.5,78C 235.056,78.3826 235.389,78.8826 235.5,79.5C 234.167,79.5 232.833,79.5 231.5,79.5C 231.631,78.7611 231.464,78.0944 231,77.5C 229.378,78.0989 227.878,78.7656 226.5,79.5C 226.167,79.5 225.833,79.5 225.5,79.5C 224.5,78.1667 223.5,78.1667 222.5,79.5C 222.167,79.5 221.833,79.5 221.5,79.5C 220.329,78.6554 218.995,77.9887 217.5,77.5C 220.028,74.1727 219.528,73.8394 216,76.5C 214.43,76.33 212.597,75.9967 210.5,75.5C 210.158,74.6618 209.492,74.3284 208.5,74.5C 208.392,72.2166 207.559,70.2166 206,68.5C 205.667,68.8333 205.333,69.1667 205,69.5C 204.688,66.6908 203.188,65.0241 200.5,64.5C 200.737,63.209 200.404,62.209 199.5,61.5C 198.134,59.7287 196.634,58.0621 195,56.5C 194.316,57.7839 194.483,58.9505 195.5,60C 193.923,62.564 192.923,65.3974 192.5,68.5C 193.529,68.2964 194.529,68.7964 195.5,70C 194.747,71.487 193.914,71.6537 193,70.5C 191.956,71.6226 191.29,72.9559 191,74.5C 190.311,73.6433 189.478,72.9767 188.5,72.5C 186.899,73.1654 185.399,73.4988 184,73.5C 182.957,71.1671 182.124,68.8337 181.5,66.5C 181.5,65.8333 181.5,65.1667 181.5,64.5C 179.302,64.4088 178.969,65.0755 180.5,66.5C 179.167,66.5 178.5,67.1667 178.5,68.5C 176.973,68.427 175.973,69.0937 175.5,70.5C 173.896,71.287 173.229,72.6203 173.5,74.5C 171.876,74.3601 170.71,75.0267 170,76.5C 168.984,75.3659 168.317,75.6992 168,77.5C 165.472,76.0659 163.638,76.7325 162.5,79.5C 162.167,79.5 161.833,79.5 161.5,79.5C 161.217,78.7109 160.717,78.0442 160,77.5C 157.766,77.3737 155.432,77.7071 153,78.5C 151.071,75.5555 147.904,73.5555 143.5,72.5C 143.082,71.7784 142.416,71.2784 141.5,71C 141.833,70.6667 142.167,70.3333 142.5,70C 139.667,69.8333 138.167,68.3333 138,65.5C 137.667,65.8333 137.333,66.1667 137,66.5C 134.089,61.6563 131.589,56.9897 129.5,52.5C 130.13,50.5445 130.797,48.2111 131.5,45.5C 131.351,43.6803 130.684,42.1803 129.5,41C 130.5,40.6667 131.5,40.3333 132.5,40C 129.898,37.6883 130.232,35.8549 133.5,34.5C 135.833,34.1667 137.167,32.8333 137.5,30.5C 140.07,29.516 140.07,28.3493 137.5,27C 138.784,26.3162 139.951,26.4829 141,27.5C 141.69,25.6498 142.856,24.3164 144.5,23.5C 145.972,21.8657 147.638,20.3657 149.5,19C 148.944,18.6174 148.611,18.1174 148.5,17.5C 149.837,16.6851 150.837,15.5185 151.5,14C 153.16,12.7356 154.827,12.2356 156.5,12.5C 157.705,13.6857 159.039,13.6857 160.5,12.5C 161.945,14.0627 163.611,15.396 165.5,16.5C 166.122,17.6266 166.955,18.6266 168,19.5C 168.986,18.8288 170.153,18.8288 171.5,19.5C 168.902,20.4722 168.902,21.4722 171.5,22.5C 171.833,23.5 172.5,24.1667 173.5,24.5C 173.918,25.2216 174.584,25.7216 175.5,26C 175.167,26.3333 174.833,26.6667 174.5,27C 175.737,27.2321 176.737,27.7321 177.5,28.5C 176.761,28.369 176.094,28.5357 175.5,29C 176.701,29.9025 177.535,31.0692 178,32.5C 178.816,31.1772 179.983,30.5106 181.5,30.5C 181.5,30.8333 181.5,31.1667 181.5,31.5C 182.756,31.5386 183.756,31.0386 184.5,30C 184.034,28.7012 184.034,27.2012 184.5,25.5C 185.338,25.1583 185.672,24.4916 185.5,23.5C 188.365,21.4582 188.032,20.2915 184.5,20C 186.568,19.3131 188.568,19.4798 190.5,20.5C 191.386,19.675 191.719,18.675 191.5,17.5C 193.727,16.5994 194.727,14.9328 194.5,12.5C 195.492,12.6716 196.158,12.3382 196.5,11.5C 198.543,9.79201 200.21,7.79201 201.5,5.5C 201.369,6.37644 201.702,7.04311 202.5,7.5C 204.419,8.01105 206.085,7.34438 207.5,5.5C 208.93,5.42082 210.264,5.75415 211.5,6.5C 212.167,5.83333 212.833,5.16667 213.5,4.5C 214.696,4.84569 214.696,5.34569 213.5,6C 215.792,4.89909 217.292,5.73242 218,8.5C 218.383,7.94404 218.883,7.61071 219.5,7.5 Z M 220.5,15.5 C 221.922,15.7086 223.255,16.2086 224.5,17C 222.537,17.8442 221.204,17.3442 220.5,15.5 Z M 220.5,18.5 C 222.892,20.2329 223.725,22.5662 223,25.5C 222.552,23.7756 221.718,23.109 220.5,23.5C 221.025,22.8076 221.692,22.3076 222.5,22C 221.027,21.2904 220.36,20.1238 220.5,18.5 Z M 183.5,23.5 C 184.167,23.5 184.833,23.5 185.5,23.5C 185.672,24.4916 185.338,25.1583 184.5,25.5C 184.167,24.8333 183.833,24.1667 183.5,23.5 Z M 157.5,28.5 C 157.5,29.1667 157.833,29.5 158.5,29.5C 158.833,30.5 159.5,31.1667 160.5,31.5C 160.5,30.8333 160.5,30.1667 160.5,29.5C 162.324,31.7374 163.991,34.0707 165.5,36.5C 166.774,37.1894 166.774,38.0228 165.5,39C 169.443,40.9583 171.443,43.7916 171.5,47.5C 171.443,48.609 171.11,49.609 170.5,50.5C 169.167,50.8333 169.167,51.1667 170.5,51.5C 172.628,52.2805 172.795,53.2805 171,54.5C 169.893,53.2881 169.393,53.6214 169.5,55.5C 168.167,55.8333 168.167,56.1667 169.5,56.5C 168.909,57.1515 168.243,57.8182 167.5,58.5C 167.709,59.086 168.043,59.586 168.5,60C 167.051,61.1022 165.718,62.2689 164.5,63.5C 161.677,66.6854 158.677,67.0187 155.5,64.5C 154.29,64.0679 153.29,63.4013 152.5,62.5C 150.984,60.0638 148.984,58.0638 146.5,56.5C 143.73,54.3263 142.73,51.6596 143.5,48.5C 143.167,48.5 142.833,48.5 142.5,48.5C 142.955,45.5379 144.121,42.8713 146,40.5C 147.209,40.3474 148.375,40.0141 149.5,39.5C 150.925,41.0311 151.591,40.6977 151.5,38.5C 150.662,38.1583 150.328,37.4916 150.5,36.5C 151.833,36.1667 151.833,35.8333 150.5,35.5C 151.189,34.2264 152.023,34.2264 153,35.5C 153.861,34.2524 154.361,32.9191 154.5,31.5C 155.167,30.1667 156.167,29.1667 157.5,28.5 Z M 220.5,30.5 C 220.5,31.1667 220.833,31.5 221.5,31.5C 221.954,33.7411 221.954,35.7411 221.5,37.5C 221.78,40.3882 220.447,41.8882 217.5,42C 218.76,43.113 219.927,43.2797 221,42.5C 221.167,43 221.333,43.5 221.5,44C 219.926,44.4259 218.926,45.9259 218.5,48.5C 220.993,48.1307 221.66,48.7973 220.5,50.5C 220.5,51.8333 220.5,53.1667 220.5,54.5C 219.508,54.3284 218.842,54.6618 218.5,55.5C 217.662,55.8417 217.328,56.5084 217.5,57.5C 217.167,57.5 216.833,57.5 216.5,57.5C 215.207,56.3552 214.041,56.6885 213,58.5C 212.536,57.9056 212.369,57.2389 212.5,56.5C 213.833,56.1667 213.833,55.8333 212.5,55.5C 212.607,53.6214 212.107,53.2881 211,54.5C 208.735,53.0842 207.569,51.0842 207.5,48.5C 208.833,48.1667 208.833,47.8333 207.5,47.5C 207.672,46.5084 207.338,45.8417 206.5,45.5C 206.167,44.1667 205.833,44.1667 205.5,45.5C 204.603,44.4019 203.77,44.4019 203,45.5C 202.365,44.0337 201.531,42.7003 200.5,41.5C 200.624,40.8933 200.957,40.56 201.5,40.5C 202.531,41.2485 203.698,41.9152 205,42.5C 207.033,40.6503 207.033,39.9836 205,40.5C 204.333,39.5 204.333,38.5 205,37.5C 205.333,37.8333 205.667,38.1667 206,38.5C 207.018,36.0718 208.852,34.7385 211.5,34.5C 211.5,33.1667 212.167,32.5 213.5,32.5C 215.122,28.496 217.455,27.8294 220.5,30.5 Z M 220.5,28.5 C 222.552,29.0527 222.885,30.0527 221.5,31.5C 220.833,31.5 220.5,31.1667 220.5,30.5C 220.5,29.8333 220.5,29.1667 220.5,28.5 Z M 307.5,28.5 C 308.167,28.5 308.833,28.5 309.5,28.5C 308.779,30.3818 307.779,30.7152 306.5,29.5C 307.167,29.5 307.5,29.1667 307.5,28.5 Z M 181.5,31.5 C 181.557,32.609 181.89,33.609 182.5,34.5C 181.833,34.5 181.167,34.5 180.5,34.5C 180.263,33.209 180.596,32.209 181.5,31.5 Z M 180.5,35.5 C 181.167,35.5 181.833,35.5 182.5,35.5C 182.167,36.1667 181.833,36.8333 181.5,37.5C 180.662,37.1583 180.328,36.4916 180.5,35.5 Z M 149.5,39.5 C 148.711,39.2172 148.044,38.7172 147.5,38C 148.816,37.4719 149.483,37.9719 149.5,39.5 Z M 253.5,42.5 C 253.833,42.5 254.167,42.5 254.5,42.5C 254.33,43.8221 254.663,44.9887 255.5,46C 255,46.5 254.5,47 254,47.5C 253.506,45.8659 253.34,44.1992 253.5,42.5 Z M 205.5,45.5 C 205.833,45.5 206.167,45.5 206.5,45.5C 206.328,46.4916 206.662,47.1583 207.5,47.5C 207.5,47.8333 207.5,48.1667 207.5,48.5C 206.778,48.9175 206.278,49.5842 206,50.5C 205.535,49.0692 204.701,47.9025 203.5,47C 204.416,46.7216 205.082,46.2216 205.5,45.5 Z M 239.5,47.5 C 239.5,48.1667 239.833,48.5 240.5,48.5C 241.167,49.1667 241.833,49.8333 242.5,50.5C 240.973,50.427 239.973,51.0937 239.5,52.5C 240.167,52.5 240.833,52.5 241.5,52.5C 240.402,53.397 240.402,54.2303 241.5,55C 239.193,55.3542 238.859,56.3542 240.5,58C 240.164,59.0299 239.497,59.5299 238.5,59.5C 237.922,58.453 237.256,58.6197 236.5,60C 236.728,60.3988 237.062,60.5654 237.5,60.5C 237.225,62.8418 236.392,62.8418 235,60.5C 234.617,61.056 234.117,61.3893 233.5,61.5C 232.28,59.7163 232.28,58.0496 233.5,56.5C 233.365,54.4458 234.032,52.7791 235.5,51.5C 236.268,50.7375 236.768,49.7375 237,48.5C 237.671,47.7476 238.504,47.4142 239.5,47.5 Z M 270.5,47.5 C 270.833,48.8333 271.167,48.8333 271.5,47.5C 272.167,48.1667 272.833,48.8333 273.5,49.5C 273.833,52.1667 274.167,52.1667 274.5,49.5C 275.364,50.6883 276.364,51.8549 277.5,53C 276.833,53.3333 276.167,53.6667 275.5,54C 276.471,55.2036 277.471,55.7036 278.5,55.5C 277.624,56.2508 276.624,56.7508 275.5,57C 278.167,57.6667 278.167,58.3333 275.5,59C 276.167,59.3333 276.833,59.6667 277.5,60C 275.938,61.6336 274.271,63.1336 272.5,64.5C 272.5,63.8333 272.167,63.5 271.5,63.5C 271.44,62.9569 271.107,62.6236 270.5,62.5C 269.227,63.2565 269.227,63.9232 270.5,64.5C 270.672,65.4916 270.338,66.1583 269.5,66.5C 269.167,65.1667 268.833,65.1667 268.5,66.5C 268.167,66.5 267.833,66.5 267.5,66.5C 267.167,65.1667 266.833,65.1667 266.5,66.5C 263.207,65.6798 262.874,64.0131 265.5,61.5C 265.264,58.9511 265.264,56.4511 265.5,54C 266.094,53.5357 266.761,53.369 267.5,53.5C 265.871,51.8041 266.204,50.8041 268.5,50.5C 268.435,50.9382 268.601,51.2716 269,51.5C 271.665,50.526 271.831,49.8593 269.5,49.5C 269.328,48.5084 269.662,47.8417 270.5,47.5 Z M 291.5,51.5 C 292.167,51.5 292.833,51.5 293.5,51.5C 293.611,52.1174 293.944,52.6174 294.5,53C 293.142,53.9344 291.808,54.7677 290.5,55.5C 289.957,55.44 289.624,55.1067 289.5,54.5C 290.193,53.4822 290.859,52.4822 291.5,51.5 Z M 290.5,56.5 C 291.797,59.6034 291.464,59.9367 289.5,57.5C 289.624,56.8933 289.957,56.56 290.5,56.5 Z M 217.5,58.5 C 217.5,58.1667 217.5,57.8333 217.5,57.5C 220.46,58.032 220.793,58.6987 218.5,59.5C 218.5,58.8333 218.167,58.5 217.5,58.5 Z M 216.5,58.5 C 216.833,58.5 217.167,58.5 217.5,58.5C 218.167,58.5 218.5,58.8333 218.5,59.5C 218.5,59.8333 218.5,60.1667 218.5,60.5C 217.167,60.5 216.5,59.8333 216.5,58.5 Z M 218.5,61.5 C 221.209,63.1316 220.875,63.6316 217.5,63C 216.288,61.8932 216.621,61.3932 218.5,61.5 Z M 181.5,64.5 C 181.5,65.1667 181.5,65.8333 181.5,66.5C 181.167,66.5 180.833,66.5 180.5,66.5C 178.969,65.0755 179.302,64.4088 181.5,64.5 Z M 287.5,68.5 C 287.539,69.7562 287.039,70.7562 286,71.5C 285.415,70.0024 285.915,69.0024 287.5,68.5 Z M 315.5,70.5 C 315.167,70.5 314.833,70.5 314.5,70.5C 313.537,69.6365 313.537,68.9698 314.5,68.5C 315.298,68.9569 315.631,69.6236 315.5,70.5 Z"/></g>
<g><path style="opacity:0.008" fill="#fefffe" d="M 9.5,5.5 C 10.8333,6.16667 10.8333,6.16667 9.5,5.5 Z"/></g>
<g><path style="opacity:0.212" fill="#fefffe" d="M 219.5,6.5 C 218.833,5.16667 218.833,5.16667 219.5,6.5 Z"/></g>
<g><path style="opacity:0.525" fill="#fefffe" d="M 223.5,5.5 C 224.833,6.16667 224.833,6.16667 223.5,5.5 Z"/></g>
<g><path style="opacity:0.004" fill="#fefffe" d="M 225.5,5.5 C 226.833,6.16667 226.833,6.16667 225.5,5.5 Z"/></g>
<g><path style="opacity:0.141" fill="#fefffe" d="M 103.5,6.5 C 104.833,7.16667 104.833,7.16667 103.5,6.5 Z"/></g>
<g><path style="opacity:0.075" fill="#fefffe" d="M 219.5,6.5 C 220.833,7.16667 220.833,7.16667 219.5,6.5 Z"/></g>
<g><path style="opacity:0.808" fill="#fefffe" d="M 233.5,6.5 C 234.833,7.16667 234.833,7.16667 233.5,6.5 Z"/></g>
<g><path style="opacity:0.87" fill="#fefffe" d="M 36.5,10.5 C 37.1894,11.7736 38.0228,11.7736 39,10.5C 40.3333,13.1667 41.6667,13.1667 43,10.5C 43.3333,11.1667 43.6667,11.8333 44,12.5C 45.0113,11.6634 46.1779,11.33 47.5,11.5C 47.3893,12.1174 47.056,12.6174 46.5,13C 49.794,14.8036 50.294,17.3036 48,20.5C 46.6861,21.3128 45.5195,22.3128 44.5,23.5C 42.0193,22.508 40.5193,23.508 40,26.5C 39.5172,25.552 39.3505,24.552 39.5,23.5C 38.209,23.2627 37.209,23.596 36.5,24.5C 35.8826,24.6107 35.3826,24.944 35,25.5C 32.6068,22.9588 30.4401,22.9588 28.5,25.5C 28.1981,23.9189 26.6981,23.2523 24,23.5C 18.9209,24.6711 17.4209,27.3377 19.5,31.5C 18.9859,32.6246 18.6526,33.7913 18.5,35C 19.676,36.9142 20.676,36.7476 21.5,34.5C 22.5937,35.868 22.2603,37.0347 20.5,38C 22.3869,38.7796 24.0536,38.6129 25.5,37.5C 29.9647,37.6352 33.9647,37.6352 37.5,37.5C 38.9794,38.148 40.4794,38.4814 42,38.5C 44.2534,35.9052 46.4201,36.0719 48.5,39C 47.6598,40.6665 48.1598,40.8331 50,39.5C 50.3114,40.7425 49.8114,41.7425 48.5,42.5C 49.3398,43.735 50.3398,44.735 51.5,45.5C 49.3862,46.3602 48.2195,48.0268 48,50.5C 44.8658,47.9599 41.8658,48.2933 39,51.5C 36.0555,48.8114 32.8888,48.1448 29.5,49.5C 28.3115,48.9524 27.1448,48.6191 26,48.5C 25.3333,51.1667 24.6667,51.1667 24,48.5C 23.2828,49.0442 22.7828,49.7109 22.5,50.5C 22.1667,50.5 21.8333,50.5 21.5,50.5C 21.1667,49.1667 20.8333,49.1667 20.5,50.5C 18.1582,50.7748 18.1582,51.6081 20.5,53C 19.8288,53.9862 19.8288,55.1529 20.5,56.5C 20.5079,58.0502 20.1746,59.7168 19.5,61.5C 18.5266,61.9867 17.5266,62.4867 16.5,63C 18.9012,63.795 21.0679,64.9617 23,66.5C 26.7325,65.4191 30.5658,64.7525 34.5,64.5C 34.56,65.0431 34.8933,65.3764 35.5,65.5C 36.3857,64.675 36.719,63.675 36.5,62.5C 36.8333,62.5 37.1667,62.5 37.5,62.5C 38.5477,64.9327 39.2144,64.9327 39.5,62.5C 40.8816,63.8005 42.5483,64.6339 44.5,65C 45.8228,65.8159 46.4894,66.9826 46.5,68.5C 45.3143,69.7054 45.3143,71.0387 46.5,72.5C 45.6618,72.8417 45.3284,73.5084 45.5,74.5C 43.5642,75.259 41.7309,76.259 40,77.5C 38.6462,75.0104 37.4795,75.0104 36.5,77.5C 35.5768,76.6971 34.5768,76.5304 33.5,77C 34.5981,77.7697 34.5981,78.603 33.5,79.5C 33.1667,79.5 32.8333,79.5 32.5,79.5C 32.1667,78.1667 31.8333,78.1667 31.5,79.5C 30.8333,79.5 30.1667,79.5 29.5,79.5C 30.3029,78.5768 30.4696,77.5768 30,76.5C 28.4569,77.2849 26.7902,77.2849 25,76.5C 23.5531,76.9452 22.2197,77.6119 21,78.5C 19.2739,76.9022 18.4406,77.2355 18.5,79.5C 18.1667,79.5 17.8333,79.5 17.5,79.5C 16.8333,78.1667 16.1667,78.1667 15.5,79.5C 14.8333,79.5 14.1667,79.5 13.5,79.5C 12.5,78.1667 11.5,78.1667 10.5,79.5C 10.1667,79.5 9.83333,79.5 9.5,79.5C 8.34214,78.4274 8.34214,77.2607 9.5,76C 9.16389,74.9701 8.49722,74.4701 7.5,74.5C 9.12901,72.8041 8.79568,71.8041 6.5,71.5C 5.14533,68.203 5.64533,67.8696 8,70.5C 7.93198,68.6577 8.09865,66.991 8.5,65.5C 9.58617,65.38 10.2528,64.7133 10.5,63.5C 9.14378,62.1545 7.81045,60.1545 6.5,57.5C 9.19551,55.403 8.86218,53.5697 5.5,52C 6.5,51.6667 7.5,51.3333 8.5,51C 7.69499,49.8873 7.02832,48.7206 6.5,47.5C 6.67118,42.5854 6.67118,37.9188 6.5,33.5C 7.41239,32.2618 7.57906,30.9285 7,29.5C 6.66667,30.1667 6.33333,30.8333 6,31.5C 5.72158,30.5842 5.22158,29.9175 4.5,29.5C 5.4349,26.1264 6.4349,22.793 7.5,19.5C 8.0818,16.8952 8.41514,13.8952 8.5,10.5C 9.71237,9.77013 10.7124,8.77013 11.5,7.5C 13.444,8.1892 15.444,8.6892 17.5,9C 18.6405,9.74117 18.6405,10.5745 17.5,11.5C 19.2299,13.8361 20.7299,13.8361 22,11.5C 22.6739,12.5784 23.6739,13.2451 25,13.5C 27.2431,12.6288 29.2431,12.6288 31,13.5C 32.8665,12.4734 34.6998,11.4734 36.5,10.5 Z M 37.5,62.5 C 38.1667,62.5 38.8333,62.5 39.5,62.5C 39.2144,64.9327 38.5477,64.9327 37.5,62.5 Z"/></g>
<g><path style="opacity:0.435" fill="#fefffe" d="M 28.5,7.5 C 29.8333,8.16667 29.8333,8.16667 28.5,7.5 Z"/></g>
<g><path style="opacity:0.847" fill="#fefffe" d="M 34.5,7.5 C 35.8333,8.16667 35.8333,8.16667 34.5,7.5 Z"/></g>
<g><path style="opacity:0.373" fill="#fefffe" d="M 38.5,7.5 C 39.8333,8.16667 39.8333,8.16667 38.5,7.5 Z"/></g>
<g><path style="opacity:0.996" fill="#fefffe" d="M 195.5,7.5 C 196.833,8.16667 196.833,8.16667 195.5,7.5 Z"/></g>
<g><path style="opacity:0.945" fill="#fefffe" d="M 236.5,8.5 C 236.897,7.47498 237.563,7.30831 238.5,8C 237.906,8.46434 237.239,8.63101 236.5,8.5 Z"/></g>
<g><path style="opacity:0.086" fill="#fefffe" d="M 325.5,7.5 C 326.833,8.16667 326.833,8.16667 325.5,7.5 Z"/></g>
<g><path style="opacity:0.414" fill="#fefffe" d="M 8.5,10.5 C 7.47498,10.1034 7.30831,9.43677 8,8.5C 8.46434,9.09442 8.63101,9.76109 8.5,10.5 Z"/></g>
<g><path style="opacity:0.047" fill="#fefffe" d="M 19.5,8.5 C 20.8333,9.16667 20.8333,9.16667 19.5,8.5 Z"/></g>
<g><path style="opacity:0.506" fill="#fefffe" d="M 116.5,8.5 C 117.833,9.16667 117.833,9.16667 116.5,8.5 Z"/></g>
<g><path style="opacity:0.149" fill="#fefffe" d="M 158.5,8.5 C 159.833,9.16667 159.833,9.16667 158.5,8.5 Z"/></g>
<g><path style="opacity:0.502" fill="#fefffe" d="M 220.5,8.5 C 221.525,8.89657 221.692,9.56323 221,10.5C 220.536,9.90558 220.369,9.23891 220.5,8.5 Z"/></g>
<g><path style="opacity:0.992" fill="#fefffe" d="M 36.5,9.5 C 37.8333,10.1667 37.8333,10.1667 36.5,9.5 Z"/></g>
<g><path style="opacity:1" fill="#fefffe" d="M 49.5,9.5 C 50.8333,10.1667 50.8333,10.1667 49.5,9.5 Z"/></g>
<g><path style="opacity:0.035" fill="#fefffe" d="M 101.5,9.5 C 102.833,10.1667 102.833,10.1667 101.5,9.5 Z"/></g>
<g><path style="opacity:1" fill="#fefffe" d="M 114.5,9.5 C 115.833,10.1667 115.833,10.1667 114.5,9.5 Z"/></g>
<g><path style="opacity:0.886" fill="#fefffe" d="M 122.5,9.5 C 123.833,10.1667 123.833,10.1667 122.5,9.5 Z"/></g>
<g><path style="opacity:0.635" fill="#fefffe" d="M 153.5,9.5 C 154.833,10.1667 154.833,10.1667 153.5,9.5 Z"/></g>
<g><path style="opacity:0.604" fill="#fefffe" d="M 194.5,12.5 C 193.427,11.7494 193.26,10.7494 194,9.5C 194.483,10.448 194.649,11.448 194.5,12.5 Z"/></g>
<g><path style="opacity:0.908" fill="#fefffe" d="M 326.5,10.5 C 326.897,9.47498 327.563,9.30831 328.5,10C 327.906,10.4643 327.239,10.631 326.5,10.5 Z"/></g>
<g><path style="opacity:1" fill="#fefffe" d="M 366.5,9.5 C 367.833,10.1667 367.833,10.1667 366.5,9.5 Z"/></g>
<g><path style="opacity:0.435" fill="#fefffe" d="M 24.5,10.5 C 25.8333,11.1667 25.8333,11.1667 24.5,10.5 Z"/></g>
<g><path style="opacity:0.467" fill="#fefffe" d="M 47.5,10.5 C 48.8333,11.1667 48.8333,11.1667 47.5,10.5 Z"/></g>
<g><path style="opacity:0.224" fill="#fefffe" d="M 106.5,10.5 C 107.833,11.1667 107.833,11.1667 106.5,10.5 Z"/></g>
<g><path style="opacity:0.868" fill="#fefffe" d="M 123.5,14.5 C 124.209,15.404 125.209,15.7373 126.5,15.5C 126.389,17.6477 127.056,17.981 128.5,16.5C 129.731,17.6507 129.731,18.8173 128.5,20C 129.191,21.0674 129.691,22.2341 130,23.5C 131.159,22.434 131.992,22.7673 132.5,24.5C 130.692,25.9179 130.025,27.9179 130.5,30.5C 129.167,30.8333 129.167,31.1667 130.5,31.5C 130.5,31.8333 130.5,32.1667 130.5,32.5C 129.167,32.8333 129.167,33.1667 130.5,33.5C 129.199,34.8816 128.366,36.5483 128,38.5C 126.333,39.7332 124.833,41.0665 123.5,42.5C 122.833,42.5 122.5,42.8333 122.5,43.5C 120.608,43.8423 118.942,45.1757 117.5,47.5C 117.863,48.1835 118.196,48.8501 118.5,49.5C 117.167,49.8333 117.167,50.1667 118.5,50.5C 119.353,53.5179 121.353,55.3512 124.5,56C 123.742,57.3639 124.242,58.5305 126,59.5C 126.333,59.1667 126.667,58.8333 127,58.5C 128.5,62 131,64.5 134.5,66C 133.875,67.6395 133.875,69.4729 134.5,71.5C 133.655,72.6715 132.989,74.0048 132.5,75.5C 130.54,76.1383 128.707,76.1383 127,75.5C 126.692,76.3081 126.192,76.9747 125.5,77.5C 124.304,77.1543 124.304,76.6543 125.5,76C 123.416,75.3028 121.749,74.1361 120.5,72.5C 118.842,71.8186 117.175,70.9853 115.5,70C 116.308,69.6924 116.975,69.1924 117.5,68.5C 115.61,67.5762 114.11,66.2429 113,64.5C 112.23,65.5981 111.397,65.5981 110.5,64.5C 110.516,60.9112 109.516,60.7446 107.5,64C 107.836,65.0299 108.503,65.5299 109.5,65.5C 109.458,68.2248 108.791,71.0581 107.5,74C 104.816,75.4204 102.149,75.9204 99.5,75.5C 98.8281,74.0508 98.1614,72.7175 97.5,71.5C 97.1667,70.1667 96.8333,70.1667 96.5,71.5C 95.4848,70.5398 95.4848,69.3731 96.5,68C 95.4188,66.6293 94.5855,65.1293 94,63.5C 93.6667,65.8333 93.3333,68.1667 93,70.5C 92.6667,69.8333 92.3333,69.1667 92,68.5C 89.7031,68.5391 87.3698,68.8724 85,69.5C 81.744,66.6749 78.0773,63.6749 74,60.5C 72.4212,61.7996 71.2545,61.4663 70.5,59.5C 71.7574,58.3774 71.4241,57.7107 69.5,57.5C 69.2914,56.0783 68.7914,54.745 68,53.5C 67.2204,55.3869 67.3871,57.0536 68.5,58.5C 69.9739,60.7702 70.6406,63.4368 70.5,66.5C 69.6252,68.5681 68.4585,70.5681 67,72.5C 65.3845,71.1991 63.8845,71.1991 62.5,72.5C 60.9891,71.4975 59.3224,70.8308 57.5,70.5C 55.8334,65.761 54.6667,60.761 54,55.5C 52.583,54.9221 51.7496,53.9221 51.5,52.5C 55.1002,51.8205 54.7668,50.9872 50.5,50C 51.5719,48.7163 52.9052,48.3829 54.5,49C 53.7476,48.3292 53.4142,47.4959 53.5,46.5C 54.2785,44.3362 54.6118,42.1696 54.5,40C 53.8333,39.6667 53.1667,39.3333 52.5,39C 53.8993,37.9384 54.8993,36.605 55.5,35C 56.296,31.6801 56.296,28.1801 55.5,24.5C 56.8889,22.1324 58.2222,19.7991 59.5,17.5C 60.4584,17.0472 61.2917,16.3805 62,15.5C 62.7175,16.4506 63.5509,16.6172 64.5,16C 63.3044,15.3457 63.3044,14.8457 64.5,14.5C 65.2432,15.9079 66.0766,17.2412 67,18.5C 68.3953,17.5697 69.8953,17.5697 71.5,18.5C 72.6473,18.1822 73.4806,17.5156 74,16.5C 74.3418,18.6192 75.1751,18.9526 76.5,17.5C 79.5239,18.0968 82.8572,18.9302 86.5,20C 89.6755,22.3673 91.1755,25.2007 91,28.5C 91.5,27.3333 92.3333,26.5 93.5,26C 92.1373,23.8707 92.4706,23.3707 94.5,24.5C 95.7289,22.077 96.7289,19.577 97.5,17C 97.1667,16.6667 96.8333,16.3333 96.5,16C 97.364,14.8631 98.364,13.5298 99.5,12C 102.13,11.1554 104.464,11.6554 106.5,13.5C 108.258,12.8721 109.758,11.8721 111,10.5C 111.667,13.1667 112.333,13.1667 113,10.5C 114.804,13.6468 117.304,14.3135 120.5,12.5C 121.476,13.1953 122.476,13.862 123.5,14.5 Z M 116.5,27.5 C 116.737,28.791 116.404,29.791 115.5,30.5C 115.5,31.8333 114.833,32.5 113.5,32.5C 113.19,31.2617 112.69,31.2617 112,32.5C 111.308,33.4368 111.475,34.1034 112.5,34.5C 112.158,35.3382 111.492,35.6716 110.5,35.5C 110.5,34.8333 110.167,34.5 109.5,34.5C 108.766,33.2921 108.433,31.9587 108.5,30.5C 110.838,32.0107 111.504,31.6773 110.5,29.5C 111.239,29.631 111.906,29.4643 112.5,29C 111.584,28.7216 110.918,28.2216 110.5,27.5C 111.833,27.1667 111.833,26.8333 110.5,26.5C 110.369,25.7611 110.536,25.0944 111,24.5C 112.299,24.9662 113.799,24.9662 115.5,24.5C 115.263,25.791 115.596,26.791 116.5,27.5 Z M 110.5,26.5 C 110.5,26.8333 110.5,27.1667 110.5,27.5C 109.833,27.5 109.5,27.8333 109.5,28.5C 108.662,28.8417 108.328,29.5084 108.5,30.5C 107.024,28.2911 107.691,26.9577 110.5,26.5 Z M 92.5,29.5 C 92.8417,28.6618 93.5084,28.3284 94.5,28.5C 94.8342,31.188 94.1675,33.5214 92.5,35.5C 92.1667,35.5 91.8333,35.5 91.5,35.5C 91.0825,34.7784 90.4158,34.2784 89.5,34C 89.8887,32.382 91.222,31.2153 93.5,30.5C 93.3764,29.8933 93.0431,29.56 92.5,29.5 Z M 76.5,32.5 C 76.0679,33.7095 75.4013,34.7095 74.5,35.5C 71.9795,37.0192 69.4795,38.6859 67,40.5C 66.5304,39.4232 66.6971,38.4232 67.5,37.5C 68.4916,37.6716 69.1583,37.3382 69.5,36.5C 70.4916,36.6716 71.1583,36.3382 71.5,35.5C 70.5413,31.6385 69.5413,31.6385 68.5,35.5C 68.1667,35.5 67.8333,35.5 67.5,35.5C 67.5858,34.5041 67.2524,33.6708 66.5,33C 69.4637,32.1597 69.797,31.1597 67.5,30C 70.146,29.5026 72.8127,29.3359 75.5,29.5C 75.2627,30.791 75.596,31.791 76.5,32.5 Z M 109.5,34.5 C 110.167,34.5 110.5,34.8333 110.5,35.5C 109.399,36.5983 108.066,36.765 106.5,36C 107.527,35.4867 108.527,34.9867 109.5,34.5 Z M 91.5,35.5 C 91.5,36.1667 91.8333,36.5 92.5,36.5C 92.9377,38.9638 91.9377,39.1304 89.5,37C 90.0442,36.2828 90.7109,35.7828 91.5,35.5 Z M 89.5,42.5 C 90.9778,42.238 92.3112,42.5713 93.5,43.5C 92.1667,44.5 92.1667,45.5 93.5,46.5C 93.0431,47.2975 92.3764,47.6309 91.5,47.5C 93.9818,49.0394 93.9818,50.5394 91.5,52C 92.1667,52.3333 92.8333,52.6667 93.5,53C 92.9221,54.417 91.9221,55.2504 90.5,55.5C 90.5,55.8333 90.5,56.1667 90.5,56.5C 88.1119,55.7813 86.6119,54.1146 86,51.5C 85.1072,52.7112 84.2739,52.7112 83.5,51.5C 84.6016,50.8243 85.6016,50.1577 86.5,49.5C 81.4105,49.7887 80.4105,48.122 83.5,44.5C 83.8333,47.1667 84.1667,47.1667 84.5,44.5C 85.4916,44.6716 86.1583,44.3382 86.5,43.5C 87.8333,43.1667 87.8333,42.8333 86.5,42.5C 88.0006,37.362 89.0006,37.362 89.5,42.5 Z M 69.5,57.5 C 68.8333,57.5 68.5,57.8333 68.5,58.5C 67.3871,57.0536 67.2204,55.3869 68,53.5C 68.7914,54.745 69.2914,56.0783 69.5,57.5 Z M 93.5,55.5 C 94.6225,57.2884 94.7891,59.2884 94,61.5C 92.6682,59.4505 92.5015,57.4505 93.5,55.5 Z M 69.5,57.5 C 71.4241,57.7107 71.7574,58.3774 70.5,59.5C 70.1667,58.8333 69.8333,58.1667 69.5,57.5 Z M 110.5,64.5 C 109.833,64.5 109.5,64.8333 109.5,65.5C 108.503,65.5299 107.836,65.0299 107.5,64C 109.516,60.7446 110.516,60.9112 110.5,64.5 Z"/></g>
<g><path style="opacity:0.306" fill="#fefffe" d="M 151.5,10.5 C 152.833,11.1667 152.833,11.1667 151.5,10.5 Z"/></g>
<g><path style="opacity:1" fill="#fefffe" d="M 156.5,11.5 C 155.833,10.1667 155.833,10.1667 156.5,11.5 Z"/></g>
<g><path style="opacity:0.988" fill="#fefffe" d="M 196.5,11.5 C 195.833,10.1667 195.833,10.1667 196.5,11.5 Z"/></g>
<g><path style="opacity:0.184" fill="#fefffe" d="M 235.5,10.5 C 236.833,11.1667 236.833,11.1667 235.5,10.5 Z"/></g>
<g><path style="opacity:0.451" fill="#fefffe" d="M 51.5,11.5 C 52.8333,12.1667 52.8333,12.1667 51.5,11.5 Z"/></g>
<g><path style="opacity:0.839" fill="#fefffe" d="M 94.5,11.5 C 95.8333,12.1667 95.8333,12.1667 94.5,11.5 Z"/></g>
<g><path style="opacity:0.902" fill="#fefffe" d="M 156.5,12.5 C 156.5,12.1667 156.5,11.8333 156.5,11.5C 159.167,11.8333 159.167,12.1667 156.5,12.5 Z"/></g>
<g><path style="opacity:1" fill="#fefffe" d="M 160.5,11.5 C 161.833,12.1667 161.833,12.1667 160.5,11.5 Z"/></g>
<g><path style="opacity:0.078" fill="#fefffe" d="M 325.5,11.5 C 326.833,12.1667 326.833,12.1667 325.5,11.5 Z"/></g>
<g><path style="opacity:1" fill="#fefffe" d="M 365.5,11.5 C 366.525,11.8966 366.692,12.5632 366,13.5C 365.536,12.9056 365.369,12.2389 365.5,11.5 Z"/></g>
<g><path style="opacity:0.443" fill="#fefffe" d="M 368.5,12.5 C 367.833,11.1667 367.833,11.1667 368.5,12.5 Z"/></g>
<g><path style="opacity:0.965" fill="#fefffe" d="M 5.5,12.5 C 6.83333,13.1667 6.83333,13.1667 5.5,12.5 Z"/></g>
<g><path style="opacity:0.008" fill="#fefffe" d="M 123.5,14.5 C 123.369,13.7611 123.536,13.0944 124,12.5C 124.692,13.4368 124.525,14.1034 123.5,14.5 Z"/></g>
<g><path style="opacity:0.008" fill="#fefffe" d="M 127.5,13.5 C 126.833,12.1667 126.833,12.1667 127.5,13.5 Z"/></g>
<g><path style="opacity:0.957" fill="#fefffe" d="M 191.5,12.5 C 192.833,13.1667 192.833,13.1667 191.5,12.5 Z"/></g>
<g><path style="opacity:0.071" fill="#fefffe" d="M 221.5,12.5 C 222.833,13.1667 222.833,13.1667 221.5,12.5 Z"/></g>
<g><path style="opacity:0.086" fill="#fefffe" d="M 368.5,12.5 C 368.833,12.5 369.167,12.5 369.5,12.5C 369.5,12.8333 369.5,13.1667 369.5,13.5C 369.167,13.1667 368.833,12.8333 368.5,12.5 Z"/></g>
<g><path style="opacity:0.439" fill="#fefffe" d="M 58.5,13.5 C 59.8333,14.1667 59.8333,14.1667 58.5,13.5 Z"/></g>
<g><path style="opacity:0.208" fill="#fefffe" d="M 61.5,13.5 C 62.8333,14.1667 62.8333,14.1667 61.5,13.5 Z"/></g>
<g><path style="opacity:0.267" fill="#fefffe" d="M 77.5,13.5 C 78.8333,14.1667 78.8333,14.1667 77.5,13.5 Z"/></g>
<g><path style="opacity:0.075" fill="#fefffe" d="M 82.5,13.5 C 83.8333,14.1667 83.8333,14.1667 82.5,13.5 Z"/></g>
<g><path style="opacity:0.004" fill="#fefffe" d="M 127.5,13.5 C 128.833,14.1667 128.833,14.1667 127.5,13.5 Z"/></g>
<g><path style="opacity:0.29" fill="#fefffe" d="M 147.5,13.5 C 148.833,14.1667 148.833,14.1667 147.5,13.5 Z"/></g>
<g><path style="opacity:0.008" fill="#fefffe" d="M 238.5,13.5 C 239.833,14.1667 239.833,14.1667 238.5,13.5 Z"/></g>
<g><path style="opacity:0.929" fill="#fefffe" d="M 328.5,14.5 C 327.833,13.1667 327.833,13.1667 328.5,14.5 Z"/></g>
<g><path style="opacity:1" fill="#fefffe" d="M 72.5,14.5 C 73.8333,15.1667 73.8333,15.1667 72.5,14.5 Z"/></g>
<g><path style="opacity:0.918" fill="#fefffe" d="M 75.5,14.5 C 76.8333,15.1667 76.8333,15.1667 75.5,14.5 Z"/></g>
<g><path style="opacity:0.008" fill="#fefffe" d="M 127.5,14.5 C 126.833,15.1667 126.833,15.1667 127.5,14.5 Z"/></g>
<g><path style="opacity:0.133" fill="#fefffe" d="M 51.5,15.5 C 52.8333,16.1667 52.8333,16.1667 51.5,15.5 Z"/></g>
<g><path style="opacity:0.629" fill="#fefffe" d="M 72.5,15.5 C 72.1034,16.525 71.4368,16.6917 70.5,16C 71.0944,15.5357 71.7611,15.369 72.5,15.5 Z"/></g>
<g><path style="opacity:0.749" fill="#fefffe" d="M 76.5,17.5 C 76.7828,16.7109 77.2828,16.0442 78,15.5C 78.5281,16.816 78.0281,17.4827 76.5,17.5 Z"/></g>
<g><path style="opacity:0.994" fill="#fefffe" d="M 79.5,16.5 C 79.8966,15.475 80.5632,15.3083 81.5,16C 80.9056,16.4643 80.2389,16.631 79.5,16.5 Z"/></g>
<g><path style="opacity:1" fill="#fefffe" d="M 165.5,15.5 C 166.833,16.1667 166.833,16.1667 165.5,15.5 Z"/></g>
<g><path style="opacity:0.522" fill="#fefffe" d="M 167.5,15.5 C 168.833,16.1667 168.833,16.1667 167.5,15.5 Z"/></g>
<g><path style="opacity:0.384" fill="#fefffe" d="M 325.5,15.5 C 326.833,16.1667 326.833,16.1667 325.5,15.5 Z"/></g>
<g><path style="opacity:0.536" fill="#fefffe" d="M 362.5,15.5 C 363.289,15.7828 363.956,16.2828 364.5,17C 363.184,17.5281 362.517,17.0281 362.5,15.5 Z"/></g>
<g><path style="opacity:0.988" fill="#fefffe" d="M 59.5,17.5 C 58.8333,16.1667 58.8333,16.1667 59.5,17.5 Z"/></g>
<g><path style="opacity:0.576" fill="#fefffe" d="M 82.5,17.5 C 82.8966,16.475 83.5632,16.3083 84.5,17C 83.9056,17.4643 83.2389,17.631 82.5,17.5 Z"/></g>
<g><path style="opacity:0.496" fill="#fefffe" d="M 148.5,17.5 C 147.761,17.631 147.094,17.4643 146.5,17C 147.437,16.3083 148.103,16.475 148.5,17.5 Z"/></g>
<g><path style="opacity:0.71" fill="#fefffe" d="M 191.5,17.5 C 190.833,16.1667 190.833,16.1667 191.5,17.5 Z"/></g>
<g><path style="opacity:0.459" fill="#fefffe" d="M 236.5,16.5 C 237.833,17.1667 237.833,17.1667 236.5,16.5 Z"/></g>
<g><path style="opacity:0.38" fill="#fefffe" d="M 325.5,16.5 C 324.833,17.1667 324.833,17.1667 325.5,16.5 Z"/></g>
<g><path style="opacity:0.639" fill="#fefffe" d="M 58.5,17.5 C 58.1034,18.525 57.4368,18.6917 56.5,18C 57.0944,17.5357 57.7611,17.369 58.5,17.5 Z"/></g>
<g><path style="opacity:0.949" fill="#fefffe" d="M 90.5,17.5 C 91.8333,18.1667 91.8333,18.1667 90.5,17.5 Z"/></g>
<g><path style="opacity:0.086" fill="#fefffe" d="M 186.5,17.5 C 187.833,18.1667 187.833,18.1667 186.5,17.5 Z"/></g>
<g><path style="opacity:0.204" fill="#fefffe" d="M 365.5,17.5 C 366.833,18.1667 366.833,18.1667 365.5,17.5 Z"/></g>
<g><path style="opacity:0.875" fill="#fefffe" d="M 3.5,18.5 C 4.83333,19.1667 4.83333,19.1667 3.5,18.5 Z"/></g>
<g><path style="opacity:0.992" fill="#fefffe" d="M 7.5,19.5 C 6.83333,18.1667 6.83333,18.1667 7.5,19.5 Z"/></g>
<g><path style="opacity:0.914" fill="#fefffe" d="M 49.5,18.5 C 50.8333,19.1667 50.8333,19.1667 49.5,18.5 Z"/></g>
<g><path style="opacity:1" fill="#fefffe" d="M 51.5,18.5 C 52.8333,19.1667 52.8333,19.1667 51.5,18.5 Z"/></g>
<g><path style="opacity:0.478" fill="#fefffe" d="M 145.5,18.5 C 146.525,18.8966 146.692,19.5632 146,20.5C 145.536,19.9056 145.369,19.2389 145.5,18.5 Z"/></g>
<g><path style="opacity:0.051" fill="#fefffe" d="M 171.5,18.5 C 172.833,19.1667 172.833,19.1667 171.5,18.5 Z"/></g>
<g><path style="opacity:0.09" fill="#fefffe" d="M 299.5,18.5 C 300.833,19.1667 300.833,19.1667 299.5,18.5 Z"/></g>
<g><path style="opacity:0.027" fill="#fefffe" d="M 365.5,18.5 C 365.5,18.8333 365.5,19.1667 365.5,19.5C 364.83,19.0187 364.83,18.6853 365.5,18.5 Z"/></g>
<g><path style="opacity:0.278" fill="#fefffe" d="M 92.5,20.5 C 91.8333,19.1667 91.8333,19.1667 92.5,20.5 Z"/></g>
<g><path style="opacity:1" fill="#fefffe" d="M 131.5,19.5 C 132.833,20.1667 132.833,20.1667 131.5,19.5 Z"/></g>
<g><path style="opacity:0.039" fill="#fefffe" d="M 365.5,19.5 C 366.833,20.1667 366.833,20.1667 365.5,19.5 Z"/></g>
<g><path style="opacity:0.129" fill="#fefffe" d="M 0.5,20.5 C 1.83333,21.1667 1.83333,21.1667 0.5,20.5 Z"/></g>
<g><path style="opacity:0.059" fill="#fefffe" d="M 4.5,20.5 C 5.83333,21.1667 5.83333,21.1667 4.5,20.5 Z"/></g>
<g><path style="opacity:0.723" fill="#fefffe" d="M 92.5,20.5 C 94.337,20.6395 94.6704,21.3061 93.5,22.5C 92.7025,22.0431 92.3691,21.3764 92.5,20.5 Z"/></g>
<g><path style="opacity:0.98" fill="#fefffe" d="M 131.5,20.5 C 130.833,21.1667 130.833,21.1667 131.5,20.5 Z"/></g>
<g><path style="opacity:0.345" fill="#fefffe" d="M 141.5,21.5 C 141.897,20.475 142.563,20.3083 143.5,21C 142.906,21.4643 142.239,21.631 141.5,21.5 Z"/></g>
<g><path style="opacity:0.439" fill="#fefffe" d="M 173.5,21.5 C 174.497,20.2875 175.497,20.4542 176.5,22C 175.423,22.4696 174.423,22.3029 173.5,21.5 Z"/></g>
<g><path style="opacity:0.459" fill="#fefffe" d="M 236.5,20.5 C 237.833,21.1667 237.833,21.1667 236.5,20.5 Z"/></g>
<g><path style="opacity:0.412" fill="#fefffe" d="M 296.5,20.5 C 297.833,21.1667 297.833,21.1667 296.5,20.5 Z"/></g>
<g><path style="opacity:0.075" fill="#fefffe" d="M 316.5,20.5 C 317.833,21.1667 317.833,21.1667 316.5,20.5 Z"/></g>
<g><path style="opacity:0.106" fill="#fefffe" d="M 325.5,20.5 C 326.833,21.1667 326.833,21.1667 325.5,20.5 Z"/></g>
<g><path style="opacity:0.016" fill="#fefffe" d="M 132.5,21.5 C 133.833,22.1667 133.833,22.1667 132.5,21.5 Z"/></g>
<g><path style="opacity:0.004" fill="#fefffe" d="M 141.5,21.5 C 140.833,22.1667 140.833,22.1667 141.5,21.5 Z"/></g>
<g><path style="opacity:0.318" fill="#fefffe" d="M 171.5,22.5 C 171.842,21.6618 172.508,21.3284 173.5,21.5C 173.158,22.3382 172.492,22.6716 171.5,22.5 Z"/></g>
<g><path style="opacity:0.129" fill="#fefffe" d="M 239.5,21.5 C 240.833,22.1667 240.833,22.1667 239.5,21.5 Z"/></g>
<g><path style="opacity:0.024" fill="#fefffe" d="M 144.5,23.5 C 143.833,22.1667 143.833,22.1667 144.5,23.5 Z"/></g>
<g><path style="opacity:0.98" fill="#fefffe" d="M 359.5,22.5 C 360.833,23.1667 360.833,23.1667 359.5,22.5 Z"/></g>
<g><path style="opacity:0.306" fill="#fefffe" d="M 48.5,23.5 C 49.8333,24.1667 49.8333,24.1667 48.5,23.5 Z"/></g>
<g><path style="opacity:0.027" fill="#fefffe" d="M 173.5,23.5 C 174.833,24.1667 174.833,24.1667 173.5,23.5 Z"/></g>
<g><path style="opacity:0.494" fill="#fefffe" d="M 178.5,23.5 C 179.833,24.1667 179.833,24.1667 178.5,23.5 Z"/></g>
<g><path style="opacity:0.326" fill="#fefffe" d="M 183.5,23.5 C 183.833,24.1667 184.167,24.8333 184.5,25.5C 181.147,25.6547 180.814,24.9881 183.5,23.5 Z"/></g>
<g><path style="opacity:0.62" fill="#fefffe" d="M 329.5,23.5 C 330.833,24.1667 330.833,24.1667 329.5,23.5 Z"/></g>
<g><path style="opacity:0.988" fill="#fefffe" d="M 356.5,23.5 C 357.833,24.1667 357.833,24.1667 356.5,23.5 Z"/></g>
<g><path style="opacity:0.059" fill="#fefffe" d="M 361.5,23.5 C 362.833,24.1667 362.833,24.1667 361.5,23.5 Z"/></g>
<g><path style="opacity:0.856" fill="#fefffe" d="M 31.5,24.5 C 32.2891,24.7828 32.9558,25.2828 33.5,26C 32.184,26.5281 31.5173,26.0281 31.5,24.5 Z"/></g>
<g><path style="opacity:0.72" fill="#fefffe" d="M 36.5,24.5 C 37.2389,24.369 37.9056,24.5357 38.5,25C 37.5632,25.6917 36.8966,25.525 36.5,24.5 Z"/></g>
<g><path style="opacity:0.925" fill="#fefffe" d="M 42.5,24.5 C 43.8333,25.1667 43.8333,25.1667 42.5,24.5 Z"/></g>
<g><path style="opacity:0.412" fill="#fefffe" d="M 48.5,24.5 C 48.6716,25.4916 48.3382,26.1583 47.5,26.5C 47.3284,25.5084 47.6618,24.8417 48.5,24.5 Z"/></g>
<g><path style="opacity:0.063" fill="#fefffe" d="M 50.5,24.5 C 51.8333,25.1667 51.8333,25.1667 50.5,24.5 Z"/></g>
<g><path style="opacity:1" fill="#fefffe" d="M 132.5,24.5 C 133.833,25.1667 133.833,25.1667 132.5,24.5 Z"/></g>
<g><path style="opacity:1" fill="#fefffe" d="M 134.5,24.5 C 135.833,25.1667 135.833,25.1667 134.5,24.5 Z"/></g>
<g><path style="opacity:0.504" fill="#fefffe" d="M 176.5,24.5 C 177.525,24.8966 177.692,25.5632 177,26.5C 176.536,25.9056 176.369,25.2389 176.5,24.5 Z"/></g>
<g><path style="opacity:0.012" fill="#fefffe" d="M 262.5,24.5 C 263.833,25.1667 263.833,25.1667 262.5,24.5 Z"/></g>
<g><path style="opacity:0.102" fill="#fefffe" d="M 265.5,24.5 C 266.833,25.1667 266.833,25.1667 265.5,24.5 Z"/></g>
<g><path style="opacity:0.969" fill="#fefffe" d="M 267.5,24.5 C 268.833,25.1667 268.833,25.1667 267.5,24.5 Z"/></g>
<g><path style="opacity:0.031" fill="#fefffe" d="M 273.5,24.5 C 274.833,25.1667 274.833,25.1667 273.5,24.5 Z"/></g>
<g><path style="opacity:0.008" fill="#fefffe" d="M 305.5,24.5 C 306.833,25.1667 306.833,25.1667 305.5,24.5 Z"/></g>
<g><path style="opacity:0.342" fill="#fefffe" d="M 309.5,28.5 C 308.833,28.5 308.167,28.5 307.5,28.5C 307.312,26.8967 307.812,25.5634 309,24.5C 308.645,25.9594 308.811,27.2928 309.5,28.5 Z"/></g>
<g><path style="opacity:0.445" fill="#fefffe" d="M 312.5,25.5 C 311.761,25.631 311.094,25.4643 310.5,25C 311.437,24.3083 312.103,24.475 312.5,25.5 Z"/></g>
<g><path style="opacity:0.525" fill="#fefffe" d="M 325.5,24.5 C 326.833,25.1667 326.833,25.1667 325.5,24.5 Z"/></g>
<g><path style="opacity:0.984" fill="#fefffe" d="M 334.5,24.5 C 335.525,24.8966 335.692,25.5632 335,26.5C 334.536,25.9056 334.369,25.2389 334.5,24.5 Z"/></g>
<g><path style="opacity:1" fill="#fefffe" d="M 338.5,24.5 C 338.103,25.525 337.437,25.6917 336.5,25C 337.094,24.5357 337.761,24.369 338.5,24.5 Z"/></g>
<g><path style="opacity:0.239" fill="#fefffe" d="M 24.5,25.5 C 25.8333,26.1667 25.8333,26.1667 24.5,25.5 Z"/></g>
<g><path style="opacity:0.569" fill="#fefffe" d="M 28.5,25.5 C 29.8333,26.1667 29.8333,26.1667 28.5,25.5 Z"/></g>
<g><path style="opacity:0.035" fill="#fefffe" d="M 53.5,25.5 C 54.8333,26.1667 54.8333,26.1667 53.5,25.5 Z"/></g>
<g><path style="opacity:0.043" fill="#fefffe" d="M 179.5,25.5 C 180.833,26.1667 180.833,26.1667 179.5,25.5 Z"/></g>
<g><path style="opacity:0.227" fill="#fefffe" d="M 323.5,25.5 C 324.833,26.1667 324.833,26.1667 323.5,25.5 Z"/></g>
<g><path style="opacity:1" fill="#fefffe" d="M 330.5,26.5 C 329.833,25.1667 329.833,25.1667 330.5,26.5 Z"/></g>
<g><path style="opacity:0.992" fill="#fefffe" d="M 340.5,25.5 C 341.833,26.1667 341.833,26.1667 340.5,25.5 Z"/></g>
<g><path style="opacity:0.907" fill="#fefffe" d="M 344.5,26.5 C 343.923,27.7733 343.257,27.7733 342.5,26.5C 342.97,25.537 343.637,25.537 344.5,26.5 Z"/></g>
<g><path style="opacity:0.941" fill="#fefffe" d="M 21.5,26.5 C 22.8333,27.1667 22.8333,27.1667 21.5,26.5 Z"/></g>
<g><path style="opacity:0.427" fill="#fefffe" d="M 37.5,27.5 C 36.8333,26.1667 36.8333,26.1667 37.5,27.5 Z"/></g>
<g><path style="opacity:0.312" fill="#fefffe" d="M 43.5,27.5 C 43.8966,26.475 44.5632,26.3083 45.5,27C 44.9056,27.4643 44.2389,27.631 43.5,27.5 Z"/></g>
<g><path style="opacity:0.024" fill="#fefffe" d="M 47.5,26.5 C 46.8333,27.1667 46.8333,27.1667 47.5,26.5 Z"/></g>
<g><path style="opacity:0.075" fill="#fefffe" d="M 179.5,26.5 C 178.833,27.1667 178.833,27.1667 179.5,26.5 Z"/></g>
<g><path style="opacity:1" fill="#fefffe" d="M 237.5,26.5 C 238.833,27.1667 238.833,27.1667 237.5,26.5 Z"/></g>
<g><path style="opacity:0.945" fill="#fefffe" d="M 266.5,26.5 C 267.833,27.1667 267.833,27.1667 266.5,26.5 Z"/></g>
<g><path style="opacity:0.996" fill="#fefffe" d="M 305.5,26.5 C 306.833,27.1667 306.833,27.1667 305.5,26.5 Z"/></g>
<g><path style="opacity:0.82" fill="#fefffe" d="M 322.5,26.5 C 322.833,26.5 323.167,26.5 323.5,26.5C 323.315,27.1701 322.981,27.1701 322.5,26.5 Z"/></g>
<g><path style="opacity:1" fill="#fefffe" d="M 330.5,26.5 C 331.833,27.1667 331.833,27.1667 330.5,26.5 Z"/></g>
<g><path style="opacity:0.98" fill="#fefffe" d="M 332.5,26.5 C 333.833,27.1667 333.833,27.1667 332.5,26.5 Z"/></g>
<g><path style="opacity:0.753" fill="#fefffe" d="M 340.5,26.5 C 339.833,27.1667 339.833,27.1667 340.5,26.5 Z"/></g>
<g><path style="opacity:1" fill="#fefffe" d="M 349.5,27.5 C 350.077,26.2267 350.743,26.2267 351.5,27.5C 351.03,28.463 350.363,28.463 349.5,27.5 Z"/></g>
<g><path style="opacity:0.294" fill="#fefffe" d="M 21.5,27.5 C 20.8333,28.1667 20.8333,28.1667 21.5,27.5 Z"/></g>
<g><path style="opacity:0.894" fill="#fefffe" d="M 23.5,27.5 C 24.8333,28.1667 24.8333,28.1667 23.5,27.5 Z"/></g>
<g><path style="opacity:0.004" fill="#fefffe" d="M 37.5,27.5 C 38.8333,28.1667 38.8333,28.1667 37.5,27.5 Z"/></g>
<g><path style="opacity:0.047" fill="#fefffe" d="M 50.5,27.5 C 51.8333,28.1667 51.8333,28.1667 50.5,27.5 Z"/></g>
<g><path style="opacity:0.308" fill="#fefffe" d="M 133.5,27.5 C 134.773,28.0768 134.773,28.7435 133.5,29.5C 132.537,29.0302 132.537,28.3635 133.5,27.5 Z"/></g>
<g><path style="opacity:1" fill="#fefffe" d="M 269.5,28.5 C 268.833,27.1667 268.833,27.1667 269.5,28.5 Z"/></g>
<g><path style="opacity:0.153" fill="#fefffe" d="M 272.5,27.5 C 273.833,28.1667 273.833,28.1667 272.5,27.5 Z"/></g>
<g><path style="opacity:0.976" fill="#fefffe" d="M 294.5,27.5 C 295.833,28.1667 295.833,28.1667 294.5,27.5 Z"/></g>
<g><path style="opacity:0.886" fill="#fefffe" d="M 352.5,27.5 C 353.833,28.1667 353.833,28.1667 352.5,27.5 Z"/></g>
<g><path style="opacity:1" fill="#fefffe" d="M 54.5,28.5 C 55.8333,29.1667 55.8333,29.1667 54.5,28.5 Z"/></g>
<g><path style="opacity:0.871" fill="#fefffe" d="M 109.5,28.5 C 109.5,29.1667 109.833,29.5 110.5,29.5C 111.504,31.6773 110.838,32.0107 108.5,30.5C 108.328,29.5084 108.662,28.8417 109.5,28.5 Z"/></g>
<g><path style="opacity:1" fill="#fefffe" d="M 177.5,28.5 C 178.833,29.1667 178.833,29.1667 177.5,28.5 Z"/></g>
<g><path style="opacity:0.898" fill="#fefffe" d="M 266.5,29.5 C 265.833,28.1667 265.833,28.1667 266.5,29.5 Z"/></g>
<g><path style="opacity:0.863" fill="#fefffe" d="M 356.5,28.5 C 357.833,29.1667 357.833,29.1667 356.5,28.5 Z"/></g>
<g><path style="opacity:0.263" fill="#fefffe" d="M 4.5,29.5 C 3.83333,30.1667 3.83333,30.1667 4.5,29.5 Z"/></g>
<g><path style="opacity:1" fill="#fefffe" d="M 20.5,29.5 C 21.8333,30.1667 21.8333,30.1667 20.5,29.5 Z"/></g>
<g><path style="opacity:1" fill="#fefffe" d="M 137.5,30.5 C 136.833,29.1667 136.833,29.1667 137.5,30.5 Z"/></g>
<g><path style="opacity:0.41" fill="#fefffe" d="M 158.5,29.5 C 159.167,29.5 159.833,29.5 160.5,29.5C 160.5,30.1667 160.5,30.8333 160.5,31.5C 159.5,31.1667 158.833,30.5 158.5,29.5 Z"/></g>
<g><path style="opacity:0.075" fill="#fefffe" d="M 181.5,29.5 C 182.833,30.1667 182.833,30.1667 181.5,29.5 Z"/></g>
<g><path style="opacity:0.18" fill="#fefffe" d="M 257.5,29.5 C 258.833,30.1667 258.833,30.1667 257.5,29.5 Z"/></g>
<g><path style="opacity:1" fill="#fefffe" d="M 272.5,29.5 C 273.833,30.1667 273.833,30.1667 272.5,29.5 Z"/></g>
<g><path style="opacity:0.047" fill="#fefffe" d="M 52.5,30.5 C 53.8333,31.1667 53.8333,31.1667 52.5,30.5 Z"/></g>
<g><path style="opacity:0.192" fill="#fefffe" d="M 130.5,30.5 C 131.833,31.1667 131.833,31.1667 130.5,30.5 Z"/></g>
<g><path style="opacity:0.996" fill="#fefffe" d="M 134.5,30.5 C 135.833,31.1667 135.833,31.1667 134.5,30.5 Z"/></g>
<g><path style="opacity:0.572" fill="#fefffe" d="M 215.5,32.5 C 216.172,31.7326 217.005,31.0659 218,30.5C 218.188,32.0613 217.355,32.728 215.5,32.5 Z"/></g>
<g><path style="opacity:0.02" fill="#fefffe" d="M 234.5,30.5 C 235.833,31.1667 235.833,31.1667 234.5,30.5 Z"/></g>
<g><path style="opacity:0.941" fill="#fefffe" d="M 237.5,31.5 C 236.833,30.1667 236.833,30.1667 237.5,31.5 Z"/></g>
<g><path style="opacity:1" fill="#fefffe" d="M 294.5,30.5 C 295.833,31.1667 295.833,31.1667 294.5,30.5 Z"/></g>
<g><path style="opacity:0.067" fill="#fefffe" d="M 323.5,30.5 C 324.833,31.1667 324.833,31.1667 323.5,30.5 Z"/></g>
<g><path style="opacity:0.957" fill="#fefffe" d="M 2.5,31.5 C 3.83333,32.1667 3.83333,32.1667 2.5,31.5 Z"/></g>
<g><path style="opacity:0.231" fill="#fefffe" d="M 19.5,31.5 C 20.8333,32.1667 20.8333,32.1667 19.5,31.5 Z"/></g>
<g><path style="opacity:0.004" fill="#fefffe" d="M 48.5,31.5 C 49.8333,32.1667 49.8333,32.1667 48.5,31.5 Z"/></g>
<g><path style="opacity:0.527" fill="#fefffe" d="M 134.5,31.5 C 134.672,32.4916 134.338,33.1583 133.5,33.5C 131.969,32.0755 132.302,31.4088 134.5,31.5 Z"/></g>
<g><path style="opacity:0.58" fill="#fefffe" d="M 160.5,31.5 C 161.773,32.0768 161.773,32.7435 160.5,33.5C 159.537,33.0302 159.537,32.3635 160.5,31.5 Z"/></g>
<g><path style="opacity:0.996" fill="#fefffe" d="M 237.5,31.5 C 238.833,32.1667 238.833,32.1667 237.5,31.5 Z"/></g>
<g><path style="opacity:0.243" fill="#fefffe" d="M 258.5,31.5 C 259.833,32.1667 259.833,32.1667 258.5,31.5 Z"/></g>
<g><path style="opacity:0.031" fill="#fefffe" d="M 273.5,31.5 C 274.833,32.1667 274.833,32.1667 273.5,31.5 Z"/></g>
<g><path style="opacity:0.574" fill="#fefffe" d="M 277.5,33.5 C 277.167,33.5 276.833,33.5 276.5,33.5C 275.537,32.6365 275.537,31.9698 276.5,31.5C 277.298,31.9569 277.631,32.6236 277.5,33.5 Z"/></g>
<g><path style="opacity:0.48" fill="#fefffe" d="M 71.5,35.5 C 71.1583,36.3382 70.4916,36.6716 69.5,36.5C 69.5,35.8333 69.1667,35.5 68.5,35.5C 69.5413,31.6385 70.5413,31.6385 71.5,35.5 Z"/></g>
<g><path style="opacity:0.004" fill="#fefffe" d="M 130.5,32.5 C 131.833,33.1667 131.833,33.1667 130.5,32.5 Z"/></g>
<g><path style="opacity:0.525" fill="#fefffe" d="M 213.5,32.5 C 214.167,32.5 214.833,32.5 215.5,32.5C 214.305,36.2861 213.638,36.2861 213.5,32.5 Z"/></g>
<g><path style="opacity:0.736" fill="#fefffe" d="M 234.5,32.5 C 235.756,32.4614 236.756,32.9614 237.5,34C 236.002,34.5847 235.002,34.0847 234.5,32.5 Z"/></g>
<g><path style="opacity:0.824" fill="#fefffe" d="M 241.5,32.5 C 242.833,33.1667 242.833,33.1667 241.5,32.5 Z"/></g>
<g><path style="opacity:0.992" fill="#fefffe" d="M 244.5,32.5 C 245.833,33.1667 245.833,33.1667 244.5,32.5 Z"/></g>
<g><path style="opacity:0.996" fill="#fefffe" d="M 247.5,32.5 C 248.525,32.8966 248.692,33.5632 248,34.5C 247.536,33.9056 247.369,33.2389 247.5,32.5 Z"/></g>
<g><path style="opacity:0.125" fill="#fefffe" d="M 278.5,32.5 C 279.833,33.1667 279.833,33.1667 278.5,32.5 Z"/></g>
<g><path style="opacity:0.727" fill="#fefffe" d="M 3.5,33.5 C 4.52502,33.8966 4.69169,34.5632 4,35.5C 3.53566,34.9056 3.36899,34.2389 3.5,33.5 Z"/></g>
<g><path style="opacity:0.482" fill="#fefffe" d="M 6.5,33.5 C 5.83333,34.1667 5.83333,34.1667 6.5,33.5 Z"/></g>
<g><path style="opacity:0.618" fill="#fefffe" d="M 23.5,33.5 C 24.525,33.8966 24.6917,34.5632 24,35.5C 23.5357,34.9056 23.369,34.2389 23.5,33.5 Z"/></g>
<g><path style="opacity:0.569" fill="#fefffe" d="M 26.5,33.5 C 27.8333,34.1667 27.8333,34.1667 26.5,33.5 Z"/></g>
<g><path style="opacity:0.992" fill="#fefffe" d="M 42.5,33.5 C 43.8333,34.1667 43.8333,34.1667 42.5,33.5 Z"/></g>
<g><path style="opacity:0.38" fill="#fefffe" d="M 133.5,33.5 C 133.5,33.8333 133.5,34.1667 133.5,34.5C 132.83,34.0187 132.83,33.6853 133.5,33.5 Z"/></g>
<g><path style="opacity:0.98" fill="#fefffe" d="M 238.5,33.5 C 239.833,34.1667 239.833,34.1667 238.5,33.5 Z"/></g>
<g><path style="opacity:0.522" fill="#fefffe" d="M 241.5,33.5 C 240.833,34.1667 240.833,34.1667 241.5,33.5 Z"/></g>
<g><path style="opacity:0.004" fill="#fefffe" d="M 244.5,33.5 C 243.833,34.1667 243.833,34.1667 244.5,33.5 Z"/></g>
<g><path style="opacity:0.875" fill="#fefffe" d="M 251.5,33.5 C 252.833,34.1667 252.833,34.1667 251.5,33.5 Z"/></g>
<g><path style="opacity:0.345" fill="#fefffe" d="M 277.5,33.5 C 277.833,33.5 278.167,33.5 278.5,33.5C 278.315,34.1701 277.981,34.1701 277.5,33.5 Z"/></g>
<g><path style="opacity:0.688" fill="#fefffe" d="M 281.5,33.5 C 282.525,33.8966 282.692,34.5632 282,35.5C 281.536,34.9056 281.369,34.2389 281.5,33.5 Z"/></g>
<g><path style="opacity:0.58" fill="#fefffe" d="M 294.5,34.5 C 293.833,33.1667 293.833,33.1667 294.5,34.5 Z"/></g>
<g><path style="opacity:0.973" fill="#fefffe" d="M 320.5,33.5 C 321.833,34.1667 321.833,34.1667 320.5,33.5 Z"/></g>
<g><path style="opacity:0.831" fill="#fefffe" d="M 34.5,35.5 C 33.8333,34.1667 33.8333,34.1667 34.5,35.5 Z"/></g>
<g><path style="opacity:0.696" fill="#fefffe" d="M 44.5,35.5 C 44.8966,34.475 45.5632,34.3083 46.5,35C 45.9056,35.4643 45.2389,35.631 44.5,35.5 Z"/></g>
<g><path style="opacity:0.004" fill="#fefffe" d="M 52.5,34.5 C 53.8333,35.1667 53.8333,35.1667 52.5,34.5 Z"/></g>
<g><path style="opacity:0.58" fill="#fefffe" d="M 294.5,34.5 C 295.833,35.1667 295.833,35.1667 294.5,34.5 Z"/></g>
<g><path style="opacity:0.259" fill="#fefffe" d="M 29.5,36.5 C 28.8333,35.1667 28.8333,35.1667 29.5,36.5 Z"/></g>
<g><path style="opacity:0.92" fill="#fefffe" d="M 34.5,35.5 C 35.2389,35.369 35.9056,35.5357 36.5,36C 35.5632,36.6917 34.8966,36.525 34.5,35.5 Z"/></g>
<g><path style="opacity:0.607" fill="#fefffe" d="M 67.5,35.5 C 67.8333,35.5 68.1667,35.5 68.5,35.5C 69.1667,35.5 69.5,35.8333 69.5,36.5C 69.1583,37.3382 68.4916,37.6716 67.5,37.5C 67.5,36.8333 67.5,36.1667 67.5,35.5 Z"/></g>
<g><path style="opacity:0.004" fill="#fefffe" d="M 248.5,35.5 C 249.833,36.1667 249.833,36.1667 248.5,35.5 Z"/></g>
<g><path style="opacity:1" fill="#fefffe" d="M 4.5,36.5 C 5.83333,37.1667 5.83333,37.1667 4.5,36.5 Z"/></g>
<g><path style="opacity:0.569" fill="#fefffe" d="M 25.5,37.5 C 24.8333,36.1667 24.8333,36.1667 25.5,37.5 Z"/></g>
<g><path style="opacity:1" fill="#fefffe" d="M 29.5,36.5 C 30.8333,37.1667 30.8333,37.1667 29.5,36.5 Z"/></g>
<g><path style="opacity:0.996" fill="#fefffe" d="M 37.5,36.5 C 38.8333,37.1667 38.8333,37.1667 37.5,36.5 Z"/></g>
<g><path style="opacity:1" fill="#fefffe" d="M 48.5,36.5 C 49.8333,37.1667 49.8333,37.1667 48.5,36.5 Z"/></g>
<g><path style="opacity:0.556" fill="#fefffe" d="M 221.5,37.5 C 220.778,37.9175 220.278,38.5842 220,39.5C 219.251,38.365 219.417,37.365 220.5,36.5C 221.107,36.6236 221.44,36.9569 221.5,37.5 Z"/></g>
<g><path style="opacity:0.703" fill="#fefffe" d="M 257.5,36.5 C 257.5,37.5 257.5,38.5 257.5,39.5C 257.167,39.5 256.833,39.5 256.5,39.5C 255.185,38.1054 255.519,37.1054 257.5,36.5 Z"/></g>
<g><path style="opacity:0.992" fill="#fefffe" d="M 283.5,37.5 C 282.833,36.1667 282.833,36.1667 283.5,37.5 Z"/></g>
<g><path style="opacity:0.008" fill="#fefffe" d="M 297.5,37.5 C 296.833,36.1667 296.833,36.1667 297.5,37.5 Z"/></g>
<g><path style="opacity:0.788" fill="#fefffe" d="M 250.5,37.5 C 251.833,38.1667 251.833,38.1667 250.5,37.5 Z"/></g>
<g><path style="opacity:1" fill="#fefffe" d="M 283.5,37.5 C 284.833,38.1667 284.833,38.1667 283.5,37.5 Z"/></g>
<g><path style="opacity:1" fill="#fefffe" d="M 285.5,37.5 C 286.833,38.1667 286.833,38.1667 285.5,37.5 Z"/></g>
<g><path style="opacity:0.447" fill="#fefffe" d="M 288.5,37.5 C 289.833,38.1667 289.833,38.1667 288.5,37.5 Z"/></g>
<g><path style="opacity:0.294" fill="#fefffe" d="M 252.5,38.5 C 253.833,39.1667 253.833,39.1667 252.5,38.5 Z"/></g>
<g><path style="opacity:1" fill="#fefffe" d="M 319.5,38.5 C 320.833,39.1667 320.833,39.1667 319.5,38.5 Z"/></g>
<g><path style="opacity:0.714" fill="#fefffe" d="M 256.5,39.5 C 255.833,40.1667 255.833,40.1667 256.5,39.5 Z"/></g>
<g><path style="opacity:0.216" fill="#fefffe" d="M 319.5,39.5 C 318.833,40.1667 318.833,40.1667 319.5,39.5 Z"/></g>
<g><path style="opacity:0.961" fill="#fefffe" d="M 3.5,40.5 C 4.83333,41.1667 4.83333,41.1667 3.5,40.5 Z"/></g>
<g><path style="opacity:0.29" fill="#fefffe" d="M 51.5,40.5 C 52.8333,41.1667 52.8333,41.1667 51.5,40.5 Z"/></g>
<g><path style="opacity:0.311" fill="#fefffe" d="M 286.5,43.5 C 286.461,42.2438 286.961,41.2438 288,40.5C 288.585,41.9976 288.085,42.9976 286.5,43.5 Z"/></g>
<g><path style="opacity:0.008" fill="#fefffe" d="M 298.5,41.5 C 297.833,40.1667 297.833,40.1667 298.5,41.5 Z"/></g>
<g><path style="opacity:1" fill="#fefffe" d="M 315.5,40.5 C 316.833,41.1667 316.833,41.1667 315.5,40.5 Z"/></g>
<g><path style="opacity:1" fill="#fefffe" d="M 5.5,41.5 C 6.83333,42.1667 6.83333,42.1667 5.5,41.5 Z"/></g>
<g><path style="opacity:1" fill="#fefffe" d="M 52.5,42.5 C 53.8333,43.1667 53.8333,43.1667 52.5,42.5 Z"/></g>
<g><path style="opacity:0.889" fill="#fefffe" d="M 123.5,42.5 C 124.043,42.56 124.376,42.8933 124.5,43.5C 123.743,44.7733 123.077,44.7733 122.5,43.5C 123.167,43.5 123.5,43.1667 123.5,42.5 Z"/></g>
<g><path style="opacity:0.447" fill="#fefffe" d="M 289.5,42.5 C 290.833,43.1667 290.833,43.1667 289.5,42.5 Z"/></g>
<g><path style="opacity:0.165" fill="#fefffe" d="M 294.5,43.5 C 293.833,42.1667 293.833,42.1667 294.5,43.5 Z"/></g>
<g><path style="opacity:1" fill="#fefffe" d="M 294.5,43.5 C 295.833,44.1667 295.833,44.1667 294.5,43.5 Z"/></g>
<g><path style="opacity:1" fill="#fefffe" d="M 315.5,44.5 C 314.833,43.1667 314.833,43.1667 315.5,44.5 Z"/></g>
<g><path style="opacity:1" fill="#fefffe" d="M 5.5,44.5 C 6.83333,45.1667 6.83333,45.1667 5.5,44.5 Z"/></g>
<g><path style="opacity:1" fill="#fefffe" d="M 315.5,44.5 C 316.167,44.5 316.5,44.8333 316.5,45.5C 316.167,45.1667 315.833,44.8333 315.5,44.5 Z"/></g>
<g><path style="opacity:0.896" fill="#fefffe" d="M 51.5,45.5 C 52.4916,45.3284 53.1583,45.6618 53.5,46.5C 51.1625,48.0107 50.4958,47.6773 51.5,45.5 Z"/></g>
<g><path style="opacity:0.004" fill="#fefffe" d="M 316.5,45.5 C 317.833,46.1667 317.833,46.1667 316.5,45.5 Z"/></g>
<g><path style="opacity:0.929" fill="#fefffe" d="M 6.5,47.5 C 5.76109,47.631 5.09442,47.4643 4.5,47C 5.43677,46.3083 6.10343,46.475 6.5,47.5 Z"/></g>
<g><path style="opacity:0.82" fill="#fefffe" d="M 143.5,48.5 C 143.56,47.9569 143.893,47.6236 144.5,47.5C 145.614,48.723 145.781,50.0563 145,51.5C 144.768,50.2625 144.268,49.2625 143.5,48.5 Z"/></g>
<g><path style="opacity:0.506" fill="#fefffe" d="M 29.5,49.5 C 30.8333,50.1667 30.8333,50.1667 29.5,49.5 Z"/></g>
<g><path style="opacity:0.506" fill="#fefffe" d="M 31.5,49.5 C 32.8333,50.1667 32.8333,50.1667 31.5,49.5 Z"/></g>
<g><path style="opacity:0.922" fill="#fefffe" d="M 45.5,49.5 C 46.8333,50.1667 46.8333,50.1667 45.5,49.5 Z"/></g>
<g><path style="opacity:0.957" fill="#fefffe" d="M 118.5,50.5 C 118.5,50.1667 118.5,49.8333 118.5,49.5C 119.756,49.4614 120.756,49.9614 121.5,51C 120.423,51.4696 119.423,51.3029 118.5,50.5 Z"/></g>
<g><path style="opacity:0.763" fill="#fefffe" d="M 293.5,51.5 C 292.833,51.5 292.167,51.5 291.5,51.5C 291.786,49.0673 292.452,49.0673 293.5,51.5 Z"/></g>
<g><path style="opacity:0.608" fill="#fefffe" d="M 20.5,50.5 C 20.8333,50.5 21.1667,50.5 21.5,50.5C 21.3147,51.1701 20.9813,51.1701 20.5,50.5 Z"/></g>
<g><path style="opacity:0.063" fill="#fefffe" d="M 22.5,50.5 C 23.1667,50.5 23.5,50.8333 23.5,51.5C 23.1667,51.1667 22.8333,50.8333 22.5,50.5 Z"/></g>
<g><path style="opacity:1" fill="#fefffe" d="M 33.5,50.5 C 34.8333,51.1667 34.8333,51.1667 33.5,50.5 Z"/></g>
<g><path style="opacity:0.796" fill="#fefffe" d="M 45.5,50.5 C 45.4891,53.0009 44.8224,53.1676 43.5,51C 44.0944,50.5357 44.7611,50.369 45.5,50.5 Z"/></g>
<g><path style="opacity:0.244" fill="#fefffe" d="M 125.5,50.5 C 126.289,50.7828 126.956,51.2828 127.5,52C 126.184,52.5281 125.517,52.0281 125.5,50.5 Z"/></g>
<g><path style="opacity:0.499" fill="#fefffe" d="M 242.5,50.5 C 242.5,50.8333 242.5,51.1667 242.5,51.5C 241.833,51.5 241.5,51.8333 241.5,52.5C 240.833,52.5 240.167,52.5 239.5,52.5C 239.973,51.0937 240.973,50.427 242.5,50.5 Z"/></g>
<g><path style="opacity:0.984" fill="#fefffe" d="M 23.5,51.5 C 24.8333,52.1667 24.8333,52.1667 23.5,51.5 Z"/></g>
<g><path style="opacity:0.031" fill="#fefffe" d="M 51.5,52.5 C 50.8333,51.1667 50.8333,51.1667 51.5,52.5 Z"/></g>
<g><path style="opacity:1" fill="#fefffe" d="M 21.5,52.5 C 22.8333,53.1667 22.8333,53.1667 21.5,52.5 Z"/></g>
<g><path style="opacity:0.078" fill="#fefffe" d="M 320.5,52.5 C 321.833,53.1667 321.833,53.1667 320.5,52.5 Z"/></g>
<g><path style="opacity:0.467" fill="#fefffe" d="M 45.5,53.5 C 46.8333,54.1667 46.8333,54.1667 45.5,53.5 Z"/></g>
<g><path style="opacity:0.438" fill="#fefffe" d="M 320.5,53.5 C 321.501,54.7887 321.334,56.1221 320,57.5C 319.235,55.9343 319.402,54.6009 320.5,53.5 Z"/></g>
<g><path style="opacity:0.502" fill="#fefffe" d="M 5.5,54.5 C 6.83333,55.1667 6.83333,55.1667 5.5,54.5 Z"/></g>
<g><path style="opacity:0.863" fill="#fefffe" d="M 317.5,54.5 C 318.833,55.1667 318.833,55.1667 317.5,54.5 Z"/></g>
<g><path style="opacity:0.571" fill="#fefffe" d="M 128.5,55.5 C 131.199,58.2721 130.866,58.7721 127.5,57C 128.056,56.6174 128.389,56.1174 128.5,55.5 Z"/></g>
<g><path style="opacity:0.329" fill="#fefffe" d="M 6.5,57.5 C 5.83333,56.1667 5.83333,56.1667 6.5,57.5 Z"/></g>
<g><path style="opacity:1" fill="#fefffe" d="M 20.5,56.5 C 21.8333,57.1667 21.8333,57.1667 20.5,56.5 Z"/></g>
<g><path style="opacity:0.322" fill="#fefffe" d="M 50.5,56.5 C 51.8333,57.1667 51.8333,57.1667 50.5,56.5 Z"/></g>
<g><path style="opacity:0.153" fill="#fefffe" d="M 3.5,58.5 C 4.83333,59.1667 4.83333,59.1667 3.5,58.5 Z"/></g>
<g><path style="opacity:0.106" fill="#fefffe" d="M 39.5,59.5 C 40.8333,60.1667 40.8333,60.1667 39.5,59.5 Z"/></g>
<g><path style="opacity:0.016" fill="#fefffe" d="M 46.5,59.5 C 47.8333,60.1667 47.8333,60.1667 46.5,59.5 Z"/></g>
<g><path style="opacity:0.384" fill="#fefffe" d="M 30.5,60.5 C 31.8333,61.1667 31.8333,61.1667 30.5,60.5 Z"/></g>
<g><path style="opacity:0.373" fill="#fefffe" d="M 39.5,60.5 C 39.5,61.1667 39.5,61.8333 39.5,62.5C 38.8333,62.5 38.1667,62.5 37.5,62.5C 37.8333,61.5 38.5,60.8333 39.5,60.5 Z"/></g>
<g><path style="opacity:0.427" fill="#fefffe" d="M 322.5,60.5 C 323.833,61.1667 323.833,61.1667 322.5,60.5 Z"/></g>
<g><path style="opacity:0.008" fill="#fefffe" d="M 4.5,61.5 C 5.83333,62.1667 5.83333,62.1667 4.5,61.5 Z"/></g>
<g><path style="opacity:0.198" fill="#fefffe" d="M 19.5,61.5 C 20.2389,61.369 20.9056,61.5357 21.5,62C 20.5632,62.6917 19.8966,62.525 19.5,61.5 Z"/></g>
<g><path style="opacity:0.214" fill="#fefffe" d="M 22.5,61.5 C 23.5735,62.2506 23.7401,63.2506 23,64.5C 22.5172,63.552 22.3505,62.552 22.5,61.5 Z"/></g>
<g><path style="opacity:0.565" fill="#fefffe" d="M 27.5,61.5 C 28.525,61.8966 28.6917,62.5632 28,63.5C 27.5357,62.9056 27.369,62.2389 27.5,61.5 Z"/></g>
<g><path style="opacity:0.765" fill="#fefffe" d="M 36.5,62.5 C 35.448,62.6495 34.448,62.4828 33.5,62C 34.7494,61.2599 35.7494,61.4265 36.5,62.5 Z"/></g>
<g><path style="opacity:0.027" fill="#fefffe" d="M 50.5,61.5 C 51.8333,62.1667 51.8333,62.1667 50.5,61.5 Z"/></g>
<g><path style="opacity:0.568" fill="#fefffe" d="M 155.5,64.5 C 155.908,63.3569 156.575,62.3569 157.5,61.5C 157.109,62.7185 157.776,63.5518 159.5,64C 158.207,64.49 156.873,64.6567 155.5,64.5 Z"/></g>
<g><path style="opacity:0.565" fill="#fefffe" d="M 196.5,61.5 C 197.773,62.0768 197.773,62.7435 196.5,63.5C 195.537,63.0302 195.537,62.3635 196.5,61.5 Z"/></g>
<g><path style="opacity:1" fill="#fefffe" d="M 199.5,61.5 C 198.833,62.1667 198.833,62.1667 199.5,61.5 Z"/></g>
<g><path style="opacity:0.644" fill="#fefffe" d="M 271.5,63.5 C 270.833,63.5 270.5,63.8333 270.5,64.5C 269.227,63.9232 269.227,63.2565 270.5,62.5C 271.107,62.6236 271.44,62.9569 271.5,63.5 Z"/></g>
<g><path style="opacity:0.027" fill="#fefffe" d="M 7.5,64.5 C 6.83333,63.1667 6.83333,63.1667 7.5,64.5 Z"/></g>
<g><path style="opacity:1" fill="#fefffe" d="M 30.5,63.5 C 31.8333,64.1667 31.8333,64.1667 30.5,63.5 Z"/></g>
<g><path style="opacity:1" fill="#fefffe" d="M 34.5,63.5 C 35.8333,64.1667 35.8333,64.1667 34.5,63.5 Z"/></g>
<g><path style="opacity:1" fill="#fefffe" d="M 74.5,63.5 C 75.8333,64.1667 75.8333,64.1667 74.5,63.5 Z"/></g>
<g><path style="opacity:0.243" fill="#fefffe" d="M 4.5,64.5 C 5.83333,65.1667 5.83333,65.1667 4.5,64.5 Z"/></g>
<g><path style="opacity:0.886" fill="#fefffe" d="M 7.5,64.5 C 8.16667,64.5 8.5,64.8333 8.5,65.5C 8.16667,65.1667 7.83333,64.8333 7.5,64.5 Z"/></g>
<g><path style="opacity:0.337" fill="#fefffe" d="M 196.5,64.5 C 197.833,65.1667 197.833,65.1667 196.5,64.5 Z"/></g>
<g><path style="opacity:0.561" fill="#fefffe" d="M 200.5,64.5 C 200.103,65.525 199.437,65.6917 198.5,65C 199.094,64.5357 199.761,64.369 200.5,64.5 Z"/></g>
<g><path style="opacity:0.012" fill="#fefffe" d="M 74.5,65.5 C 75.8333,66.1667 75.8333,66.1667 74.5,65.5 Z"/></g>
<g><path style="opacity:0.504" fill="#fefffe" d="M 78.5,65.5 C 79.525,65.8966 79.6917,66.5632 79,67.5C 78.5357,66.9056 78.369,66.2389 78.5,65.5 Z"/></g>
<g><path style="opacity:0.016" fill="#fefffe" d="M 303.5,65.5 C 304.833,66.1667 304.833,66.1667 303.5,65.5 Z"/></g>
<g><path style="opacity:0.137" fill="#fefffe" d="M 323.5,65.5 C 324.833,66.1667 324.833,66.1667 323.5,65.5 Z"/></g>
<g><path style="opacity:0.976" fill="#fefffe" d="M 52.5,66.5 C 53.8333,67.1667 53.8333,67.1667 52.5,66.5 Z"/></g>
<g><path style="opacity:0.514" fill="#fefffe" d="M 70.5,66.5 C 71.525,66.8966 71.6917,67.5632 71,68.5C 70.5357,67.9056 70.369,67.2389 70.5,66.5 Z"/></g>
<g><path style="opacity:0.102" fill="#fefffe" d="M 76.5,66.5 C 77.8333,67.1667 77.8333,67.1667 76.5,66.5 Z"/></g>
<g><path style="opacity:0.855" fill="#fefffe" d="M 110.5,66.5 C 111.833,67.1667 111.833,67.1667 110.5,66.5 Z"/></g>
<g><path style="opacity:1" fill="#fefffe" d="M 48.5,67.5 C 49.8333,68.1667 49.8333,68.1667 48.5,67.5 Z"/></g>
<g><path style="opacity:0.573" fill="#fefffe" d="M 72.5,67.5 C 73.8333,68.1667 73.8333,68.1667 72.5,67.5 Z"/></g>
<g><path style="opacity:0.027" fill="#fefffe" d="M 136.5,67.5 C 137.833,68.1667 137.833,68.1667 136.5,67.5 Z"/></g>
<g><path style="opacity:0.022" fill="#fefffe" d="M 195.5,68.5 C 195.897,67.475 196.563,67.3083 197.5,68C 196.906,68.4643 196.239,68.631 195.5,68.5 Z"/></g>
<g><path style="opacity:0.749" fill="#fefffe" d="M 202.5,67.5 C 203.833,68.1667 203.833,68.1667 202.5,67.5 Z"/></g>
<g><path style="opacity:0.718" fill="#fefffe" d="M 250.5,68.5 C 250.897,67.475 251.563,67.3083 252.5,68C 251.906,68.4643 251.239,68.631 250.5,68.5 Z"/></g>
<g><path style="opacity:0.125" fill="#fefffe" d="M 305.5,68.5 C 304.833,67.1667 304.833,67.1667 305.5,68.5 Z"/></g>
<g><path style="opacity:1" fill="#fefffe" d="M 46.5,68.5 C 47.8333,69.1667 47.8333,69.1667 46.5,68.5 Z"/></g>
<g><path style="opacity:0.535" fill="#fefffe" d="M 53.5,69.5 C 54.0768,68.2267 54.7435,68.2267 55.5,69.5C 55.0302,70.463 54.3635,70.463 53.5,69.5 Z"/></g>
<g><path style="opacity:0.992" fill="#fefffe" d="M 178.5,68.5 C 179.833,69.1667 179.833,69.1667 178.5,68.5 Z"/></g>
<g><path style="opacity:0.141" fill="#fefffe" d="M 305.5,68.5 C 306.833,69.1667 306.833,69.1667 305.5,68.5 Z"/></g>
<g><path style="opacity:0.925" fill="#fefffe" d="M 308.5,69.5 C 307.833,68.1667 307.833,68.1667 308.5,69.5 Z"/></g>
<g><path style="opacity:0.463" fill="#fefffe" d="M 113.5,69.5 C 114.525,69.8966 114.692,70.5632 114,71.5C 113.536,70.9056 113.369,70.2389 113.5,69.5 Z"/></g>
<g><path style="opacity:0.98" fill="#fefffe" d="M 250.5,69.5 C 251.833,70.1667 251.833,70.1667 250.5,69.5 Z"/></g>
<g><path style="opacity:0.275" fill="#fefffe" d="M 305.5,69.5 C 304.833,70.1667 304.833,70.1667 305.5,69.5 Z"/></g>
<g><path style="opacity:0.973" fill="#fefffe" d="M 308.5,69.5 C 309.167,69.5 309.833,69.5 310.5,69.5C 309.833,70.8333 309.167,70.8333 308.5,69.5 Z"/></g>
<g><path style="opacity:0.341" fill="#fefffe" d="M 318.5,69.5 C 319.833,70.1667 319.833,70.1667 318.5,69.5 Z"/></g>
<g><path style="opacity:1" fill="#fefffe" d="M 57.5,70.5 C 56.8333,71.1667 56.8333,71.1667 57.5,70.5 Z"/></g>
<g><path style="opacity:0.996" fill="#fefffe" d="M 71.5,70.5 C 72.8333,71.1667 72.8333,71.1667 71.5,70.5 Z"/></g>
<g><path style="opacity:0.92" fill="#fefffe" d="M 109.5,71.5 C 109.897,70.475 110.563,70.3083 111.5,71C 110.906,71.4643 110.239,71.631 109.5,71.5 Z"/></g>
<g><path style="opacity:0.992" fill="#fefffe" d="M 175.5,70.5 C 176.833,71.1667 176.833,71.1667 175.5,70.5 Z"/></g>
<g><path style="opacity:0.475" fill="#fefffe" d="M 180.5,70.5 C 181.833,71.1667 181.833,71.1667 180.5,70.5 Z"/></g>
<g><path style="opacity:0.282" fill="#fefffe" d="M 203.5,70.5 C 204.833,71.1667 204.833,71.1667 203.5,70.5 Z"/></g>
<g><path style="opacity:0.027" fill="#fefffe" d="M 6.5,71.5 C 5.83333,72.1667 5.83333,72.1667 6.5,71.5 Z"/></g>
<g><path style="opacity:1" fill="#fefffe" d="M 49.5,71.5 C 50.8333,72.1667 50.8333,72.1667 49.5,71.5 Z"/></g>
<g><path style="opacity:0.153" fill="#fefffe" d="M 68.5,71.5 C 69.8333,72.1667 69.8333,72.1667 68.5,71.5 Z"/></g>
<g><path style="opacity:0.004" fill="#fefffe" d="M 89.5,71.5 C 90.8333,72.1667 90.8333,72.1667 89.5,71.5 Z"/></g>
<g><path style="opacity:0.02" fill="#fefffe" d="M 96.5,71.5 C 96.8333,71.5 97.1667,71.5 97.5,71.5C 97.3147,72.1701 96.9813,72.1701 96.5,71.5 Z"/></g>
<g><path style="opacity:1" fill="#fefffe" d="M 134.5,71.5 C 135.833,72.1667 135.833,72.1667 134.5,71.5 Z"/></g>
<g><path style="opacity:0.992" fill="#fefffe" d="M 139.5,71.5 C 140.833,72.1667 140.833,72.1667 139.5,71.5 Z"/></g>
<g><path style="opacity:0.825" fill="#fefffe" d="M 247.5,71.5 C 248.239,71.369 248.906,71.5357 249.5,72C 248.563,72.6917 247.897,72.525 247.5,71.5 Z"/></g>
<g><path style="opacity:0.98" fill="#fefffe" d="M 250.5,71.5 C 251.833,72.1667 251.833,72.1667 250.5,71.5 Z"/></g>
<g><path style="opacity:0.578" fill="#fefffe" d="M 300.5,71.5 C 301.525,71.8966 301.692,72.5632 301,73.5C 300.536,72.9056 300.369,72.2389 300.5,71.5 Z"/></g>
<g><path style="opacity:0.325" fill="#fefffe" d="M 310.5,72.5 C 309.833,71.1667 309.833,71.1667 310.5,72.5 Z"/></g>
<g><path style="opacity:0.375" fill="#fefffe" d="M 315.5,71.5 C 316.525,71.8966 316.692,72.5632 316,73.5C 315.536,72.9056 315.369,72.2389 315.5,71.5 Z"/></g>
<g><path style="opacity:0.184" fill="#fefffe" d="M 46.5,72.5 C 47.8333,73.1667 47.8333,73.1667 46.5,72.5 Z"/></g>
<g><path style="opacity:0.255" fill="#fefffe" d="M 56.5,72.5 C 57.525,72.8966 57.6917,73.5632 57,74.5C 56.5357,73.9056 56.369,73.2389 56.5,72.5 Z"/></g>
<g><path style="opacity:0.169" fill="#fefffe" d="M 62.5,72.5 C 63.8333,73.1667 63.8333,73.1667 62.5,72.5 Z"/></g>
<g><path style="opacity:0.639" fill="#fefffe" d="M 64.5,72.5 C 65.8333,73.1667 65.8333,73.1667 64.5,72.5 Z"/></g>
<g><path style="opacity:0.004" fill="#fefffe" d="M 117.5,72.5 C 118.833,73.1667 118.833,73.1667 117.5,72.5 Z"/></g>
<g><path style="opacity:0.692" fill="#fefffe" d="M 120.5,72.5 C 120.631,73.2389 120.464,73.9056 120,74.5C 119.308,73.5632 119.475,72.8966 120.5,72.5 Z"/></g>
<g><path style="opacity:0.992" fill="#fefffe" d="M 143.5,72.5 C 142.833,73.1667 142.833,73.1667 143.5,72.5 Z"/></g>
<g><path style="opacity:0.824" fill="#fefffe" d="M 180.5,72.5 C 181.833,73.1667 181.833,73.1667 180.5,72.5 Z"/></g>
<g><path style="opacity:0.031" fill="#fefffe" d="M 193.5,72.5 C 194.833,73.1667 194.833,73.1667 193.5,72.5 Z"/></g>
<g><path style="opacity:0.529" fill="#fefffe" d="M 204.5,72.5 C 205.833,73.1667 205.833,73.1667 204.5,72.5 Z"/></g>
<g><path style="opacity:0.741" fill="#fefffe" d="M 310.5,72.5 C 311.833,73.1667 311.833,73.1667 310.5,72.5 Z"/></g>
<g><path style="opacity:0.473" fill="#fefffe" d="M 68.5,73.5 C 69.525,73.8966 69.6917,74.5632 69,75.5C 68.5357,74.9056 68.369,74.2389 68.5,73.5 Z"/></g>
<g><path style="opacity:0.004" fill="#fefffe" d="M 95.5,73.5 C 96.8333,74.1667 96.8333,74.1667 95.5,73.5 Z"/></g>
<g><path style="opacity:0.867" fill="#fefffe" d="M 139.5,73.5 C 140.833,74.1667 140.833,74.1667 139.5,73.5 Z"/></g>
<g><path style="opacity:0.235" fill="#fefffe" d="M 142.5,73.5 C 141.833,74.1667 141.833,74.1667 142.5,73.5 Z"/></g>
<g><path style="opacity:0.996" fill="#fefffe" d="M 175.5,73.5 C 176.833,74.1667 176.833,74.1667 175.5,73.5 Z"/></g>
<g><path style="opacity:0.027" fill="#fefffe" d="M 178.5,73.5 C 179.833,74.1667 179.833,74.1667 178.5,73.5 Z"/></g>
<g><path style="opacity:1" fill="#fefffe" d="M 207.5,74.5 C 206.833,73.1667 206.833,73.1667 207.5,74.5 Z"/></g>
<g><path style="opacity:0.384" fill="#fefffe" d="M 248.5,73.5 C 249.525,73.8966 249.692,74.5632 249,75.5C 248.536,74.9056 248.369,74.2389 248.5,73.5 Z"/></g>
<g><path style="opacity:0.382" fill="#fefffe" d="M 7.5,74.5 C 7.10343,75.525 6.43677,75.6917 5.5,75C 6.09442,74.5357 6.76109,74.369 7.5,74.5 Z"/></g>
<g><path style="opacity:0.827" fill="#fefffe" d="M 45.5,74.5 C 46.8333,75.1667 46.8333,75.8333 45.5,76.5C 45.5,75.8333 45.5,75.1667 45.5,74.5 Z"/></g>
<g><path style="opacity:0.231" fill="#fefffe" d="M 47.5,74.5 C 48.8333,75.1667 48.8333,75.1667 47.5,74.5 Z"/></g>
<g><path style="opacity:0.361" fill="#fefffe" d="M 58.5,74.5 C 59.8333,75.1667 59.8333,75.1667 58.5,74.5 Z"/></g>
<g><path style="opacity:0.024" fill="#fefffe" d="M 93.5,74.5 C 94.8333,75.1667 94.8333,75.1667 93.5,74.5 Z"/></g>
<g><path style="opacity:0.004" fill="#fefffe" d="M 112.5,74.5 C 113.833,75.1667 113.833,75.1667 112.5,74.5 Z"/></g>
<g><path style="opacity:0.439" fill="#fefffe" d="M 134.5,74.5 C 135.833,75.1667 135.833,75.1667 134.5,74.5 Z"/></g>
<g><path style="opacity:0.02" fill="#fefffe" d="M 139.5,74.5 C 138.833,75.1667 138.833,75.1667 139.5,74.5 Z"/></g>
<g><path style="opacity:1" fill="#fefffe" d="M 143.5,74.5 C 144.833,75.1667 144.833,75.1667 143.5,74.5 Z"/></g>
<g><path style="opacity:0.329" fill="#fefffe" d="M 182.5,74.5 C 183.833,75.1667 183.833,75.1667 182.5,74.5 Z"/></g>
<g><path style="opacity:0.988" fill="#fefffe" d="M 207.5,74.5 C 207.833,74.5 208.167,74.5 208.5,74.5C 208.315,75.1701 207.981,75.1701 207.5,74.5 Z"/></g>
<g><path style="opacity:0.004" fill="#fefffe" d="M 281.5,74.5 C 282.833,75.1667 282.833,75.1667 281.5,74.5 Z"/></g>
<g><path style="opacity:0.655" fill="#fefffe" d="M 286.5,75.5 C 285.833,74.1667 285.833,74.1667 286.5,75.5 Z"/></g>
<g><path style="opacity:0.816" fill="#fefffe" d="M 302.5,74.5 C 303.833,75.1667 303.833,75.1667 302.5,74.5 Z"/></g>
<g><path style="opacity:0.361" fill="#fefffe" d="M 62.5,75.5 C 63.8333,76.1667 63.8333,76.1667 62.5,75.5 Z"/></g>
<g><path style="opacity:0.514" fill="#fefffe" d="M 121.5,75.5 C 122.833,76.1667 122.833,76.1667 121.5,75.5 Z"/></g>
<g><path style="opacity:0.875" fill="#fefffe" d="M 132.5,75.5 C 133.833,76.1667 133.833,76.1667 132.5,75.5 Z"/></g>
<g><path style="opacity:1" fill="#fefffe" d="M 147.5,75.5 C 148.833,76.1667 148.833,76.1667 147.5,75.5 Z"/></g>
<g><path style="opacity:0.563" fill="#fefffe" d="M 210.5,75.5 C 210.631,76.2389 210.464,76.9056 210,77.5C 209.308,76.5632 209.475,75.8966 210.5,75.5 Z"/></g>
<g><path style="opacity:0.098" fill="#fefffe" d="M 244.5,75.5 C 245.833,76.1667 245.833,76.1667 244.5,75.5 Z"/></g>
<g><path style="opacity:0.149" fill="#fefffe" d="M 280.5,75.5 C 280.833,75.5 281.167,75.5 281.5,75.5C 281.315,76.1701 280.981,76.1701 280.5,75.5 Z"/></g>
<g><path style="opacity:0.039" fill="#fefffe" d="M 285.5,75.5 C 284.833,76.1667 284.833,76.1667 285.5,75.5 Z"/></g>
<g><path style="opacity:0.827" fill="#fefffe" d="M 286.5,75.5 C 287.525,75.8966 287.692,76.5632 287,77.5C 286.536,76.9056 286.369,76.2389 286.5,75.5 Z"/></g>
<g><path style="opacity:0.761" fill="#fefffe" d="M 5.5,76.5 C 6.83333,77.1667 6.83333,77.1667 5.5,76.5 Z"/></g>
<g><path style="opacity:0.949" fill="#fefffe" d="M 45.5,76.5 C 45.631,77.2389 45.4643,77.9056 45,78.5C 44.3083,77.5632 44.475,76.8966 45.5,76.5 Z"/></g>
<g><path style="opacity:0.941" fill="#fefffe" d="M 102.5,76.5 C 103.833,77.1667 103.833,77.1667 102.5,76.5 Z"/></g>
<g><path style="opacity:0.012" fill="#fefffe" d="M 171.5,76.5 C 172.833,77.1667 172.833,77.1667 171.5,76.5 Z"/></g>
<g><path style="opacity:0.055" fill="#fefffe" d="M 211.5,76.5 C 212.833,77.1667 212.833,77.1667 211.5,76.5 Z"/></g>
<g><path style="opacity:0.867" fill="#fefffe" d="M 238.5,76.5 C 237.833,77.1667 237.833,77.1667 238.5,76.5 Z"/></g>
<g><path style="opacity:0.996" fill="#fefffe" d="M 251.5,76.5 C 252.833,77.1667 252.833,77.1667 251.5,76.5 Z"/></g>
<g><path style="opacity:0.675" fill="#fefffe" d="M 282.5,76.5 C 283.833,77.1667 283.833,77.1667 282.5,76.5 Z"/></g>
<g><path style="opacity:0.557" fill="#fefffe" d="M 36.5,77.5 C 37.1667,77.5 37.5,77.8333 37.5,78.5C 37.1667,78.1667 36.8333,77.8333 36.5,77.5 Z"/></g>
<g><path style="opacity:0.886" fill="#fefffe" d="M 122.5,77.5 C 123.833,78.1667 123.833,78.1667 122.5,77.5 Z"/></g>
<g><path style="opacity:0.749" fill="#fefffe" d="M 128.5,77.5 C 129.833,78.1667 129.833,78.1667 128.5,77.5 Z"/></g>
<g><path style="opacity:1" fill="#fefffe" d="M 130.5,77.5 C 131.833,78.1667 131.833,78.1667 130.5,77.5 Z"/></g>
<g><path style="opacity:0.808" fill="#fefffe" d="M 215.5,78.5 C 214.833,77.1667 214.833,77.1667 215.5,78.5 Z"/></g>
<g><path style="opacity:0.949" fill="#fefffe" d="M 217.5,77.5 C 216.833,78.1667 216.833,78.1667 217.5,77.5 Z"/></g>
<g><path style="opacity:1" fill="#fefffe" d="M 280.5,77.5 C 281.833,78.1667 281.833,78.1667 280.5,77.5 Z"/></g>
<g><path style="opacity:0.067" fill="#fefffe" d="M 6.5,79.5 C 5.83333,78.1667 5.83333,78.1667 6.5,79.5 Z"/></g>
<g><path style="opacity:0.71" fill="#fefffe" d="M 24.5,79.5 C 23.8333,78.1667 23.8333,78.1667 24.5,79.5 Z"/></g>
<g><path style="opacity:0.976" fill="#fefffe" d="M 37.5,78.5 C 38.1667,78.5 38.5,78.8333 38.5,79.5C 38.1667,79.1667 37.8333,78.8333 37.5,78.5 Z"/></g>
<g><path style="opacity:0.18" fill="#fefffe" d="M 103.5,79.5 C 102.833,78.1667 102.833,78.1667 103.5,79.5 Z"/></g>
<g><path style="opacity:0.004" fill="#fefffe" d="M 107.5,79.5 C 106.833,78.1667 106.833,78.1667 107.5,79.5 Z"/></g>
<g><path style="opacity:0.004" fill="#fefffe" d="M 127.5,79.5 C 126.833,78.1667 126.833,78.1667 127.5,79.5 Z"/></g>
<g><path style="opacity:0.969" fill="#fefffe" d="M 166.5,79.5 C 165.833,78.1667 165.833,78.1667 166.5,79.5 Z"/></g>
<g><path style="opacity:0.09" fill="#fefffe" d="M 215.5,78.5 C 215.833,78.5 216.167,78.5 216.5,78.5C 216.5,78.8333 216.5,79.1667 216.5,79.5C 216.167,79.1667 215.833,78.8333 215.5,78.5 Z"/></g>
<g><path style="opacity:0.667" fill="#fefffe" d="M 242.5,79.5 C 241.833,78.1667 241.833,78.1667 242.5,79.5 Z"/></g>
<g><path style="opacity:0.012" fill="#fefffe" d="M 254.5,79.5 C 253.833,78.1667 253.833,78.1667 254.5,79.5 Z"/></g>
<g><path style="opacity:0.039" fill="#fefffe" d="M 285.5,79.5 C 284.833,78.1667 284.833,78.1667 285.5,79.5 Z"/></g>
<g><path style="opacity:0.22" fill="#fefffe" d="M 297.5,79.5 C 296.833,78.1667 296.833,78.1667 297.5,79.5 Z"/></g>
</svg>
